<mxfile host="app.diagrams.net" agent="Mozilla/5.0 (Windows NT 10.0; Win64; x64) AppleWebKit/537.36 (KHTML, like Gecko) Chrome/136.0.0.0 Safari/537.36 Edg/136.0.0.0" version="27.0.1">
  <diagram name="Halaman-1" id="c70WBHIG57vS-J1gwGHI">
    <mxGraphModel dx="3447" dy="1900" grid="1" gridSize="10" guides="1" tooltips="1" connect="1" arrows="1" fold="1" page="1" pageScale="1" pageWidth="827" pageHeight="1169" math="0" shadow="0">
      <root>
        <mxCell id="0" />
        <mxCell id="1" parent="0" />
        <mxCell id="nwJMVLTg8DARAomQ7jTs-1" value="" style="shape=image;verticalLabelPosition=bottom;labelBackgroundColor=default;verticalAlign=top;aspect=fixed;imageAspect=0;image=data:image/webp,UklGRvZ+AABXRUJQVlA4IOp+AABw/wKdASq4BGAEPrVYpE8nJKeiIdUa8PAWiWlu/DGXey6zE7oHJa+Evbsx/uP/B8ogc3Vp+EgDRb5/06DCPVljA/Mv2v9Ifz7+R/y3+I/bf/CemflE9X/t3+W/0/+T/bP8Evw/KP8//YeZn8/+6P7H+7/53/nf436af0P/Q/LPzV+Sn+56gv5T/P/9N/b/3f/uH0MvN+0/6H7VewL7i/Z/+j/iPyy+S76v/0/5n1H+zP/q9wH+ef3H/xf4j2w/7/hCfgv+F+5nwB/zn+4f/L/K+8f/j//f/dfmt7s/2X/Xf/b/YfAz/R/8H6a3///4vwx/cz//+8L+1P//F85rlCj2qeN9xeL+zZGsaHtU8b7i8X9myNY0PYrHfXV3uASU76fHSp+7wpvHYy/s2RrGh7VPG+4vF/ZsjWND2qeN9xeLTe2MHd3JCyaJhZNEwsmiYWTRMLJol4u5+n0oXjEa6RsqRI2VIkbKkSNlSJGylg/zqLxrpGypEjZUiRsqRI2VIkaZcSbKjwWRXp9NEwsmiYWTRMLJomFkzyZI0TCyaJhYS+E1OfP69IWh8rnGH23jNXylD9hTIBLc1X64tnQjxZfSKCr0+miJz3iYWJMhrpGypEjUYNgilZyWMw8WC4gP4BBuWF+Uw2fj2fGeJ3mg4W+VNdI2U1N9QVen00TCSS0m584yIysKvTiuLYzu5KXLnieFI9ygUDvztYFNdI2PrjCmugsfcqa6RsqPaf3NOOugqSfWj1NTZWwa+PLUM19J9EMgrjXSNlSIJ2GimypEjZSxA7eC5NJr3HxE42bIaNymaXCyaJhZM8mSNEwnAeoKvT6aJeymc+hQfl7UBc3TgI6EQ7CfDEXLpfuNDivl+n00TCyVmBYkS3reKrhUTRAkE9nLlGQunQGTMVMxRli0ZYusaHrbI203U4FNbBZFen00TCyaOZIKgEq9PpomFiPnGWgYkysRM6nZX2b2qxEPxNylbGhEBnbifr7zRdavScWzY8FWy2htqA0GHLJXig+9VVd/Qa0y+ukaaczLiRKIaguoDdU+mb3Sr60CSZcM4ON9xcu6cjA+TJomU8b6WzweyQwW1OlmMTIq12CNY0NUMWKtwSudxhYQ/uw4CpS+B07ANF1ig5KdGRn5/Z2jIFWRm2ZI0TCcBEoF6fI+PEmyl+nMasVUsxrXcZw76qMLCcqcFNRV8LEEFho6fu7qIJOLL+MDQUqWfvY+hQ4oyaQK4+Wz0Cr51MjHPv9m/yzXudawguB4NqD0Xs6ElfvEYTBmwNmr8Vc/0PBdm7AdmK5IloBgNKm+zEreys9eZ5emeYlr1KTG7oNvpgjisqXT/1WNOXqbD/gYCjBvwwBfvqWUfdWemgrrhF5bYingiys11WVbhpP+wUBRZndXk8zrSm+olylWxuuRLOnjS4XkmF/57PhW9eMNpq2B7MuynoxKj4OF8XqYlnNQ8IgLg1GjAGekkV7Fe8CMnaAmmFYI2MrkcGt3J8cxMnH696T0NGvkPHC/GFHkGdOGyvyJwophhV4fx063oC/KvTC6700RQ4ggSqWDb0WG9AtTR1pcczeG8K8nZcdfkQ6g4LBdndGzGWaJkKP1I+5uIbCHg48kqhT0l4Xi027vOYfJMYaJzgWxmvCICdM+VLDcC5ixjhgfJNyfFOqT6RkmQ0ycl7fDcPunbwE9bckEirO0d4yxfxKCphEJk5X/QmDhtXHLesWHnvYppuYhEQyXguHXPBEp9znHpol5ATdQmBdfDWTsffThj/YWmXBLPDnX2kfxJ6kAUiCQokBwOCq6LbORJrDM5/X8bZ5z0N7IMjLy8dSR5kZBmQ/JTWgxDMH3n7nJNn3/nCUVpOwC1Kp8UT/hIkeolgVZ3tZZehks/qtspg1FI2B/EmWWfLNqWrBjWRCx1IxCZIGXEO3pD8Kn6nnP0+lbA1xlYU+CJgSrCmyvou+2nnPZf3/LlFQmZH7htXrDNfmoaPF+/W947k8jaR5uCpfytYd2yLQxVpBQ10jTToBHFX147soe1TtdD4OcYiATmMzW0yHtTKJsSXFe+EmVMaFsO31Mv97InGaEuqnjSaTSeR84oW8LU4DMyR1RR8Cms97pQ05woh+mEQwVenICJQL0+lbA1zHp327eXpoihOVolsPWVIkNjnPZrSFpLTYfGWsF2iqbfn3TDM1WA55pUyvg/Chtz42QEeuiC0UZzMxCTo2w0xtu33W5G1yTDgP51JTw1ZUGPwKVDtCVToxrFBaVpsLEemjo/LTzn6fStga4wnYbOr4+IMgftmYauii6KWx7EtbMx8YEfa4MLbRAMslnwnoT1+gyww15VrwZkfXKHFC5b+lGsPITUtRFXcSx4GZgY/T/Jt4ER4D++YJZ5n/IK0Qn3dqDrruxZKXjy6BHE52RrW8xatFplTzoXixXmaOy0akptva8ye/3ntZhfvmkDw2qfwNr+G18nXs/RELDFpXvu9JnuDTNayhpct+JbCo10hs2zJGbwLhi7tbZGbtcp/PChBUxsZZ0PNgOW/yF006DRKIUojn563aab5onS+SLksH0NeHOfmvs6cV1PCTrPxD3wjjgr6/SPXFVKz8HM2MhK1P59gzbk4CKu249+R7WRsfFX7obqTLJdEC7ZQtdA+wU9dd6aIocQUM+LR1XU8FopUIeGdtmKa3iX6YRlAxXYdF2Pm1AjkB6VQc5JZwSOMWtu2U+VycY/UFXp9RLGgFjR1BV6flhRiTCOpwKa2CnrrvTRM4QsmeYvfAprqykbH4xxYKiVmmW72tY0Pap433F4rVT65Yg7MOEPap433F4v7NglaprKJQL0+la/+iAU5kyfVzKmNY0Pap433BosxxN6oq/Cg+9bxf2bI1jFF7hMlNribP91MKd9vFWAum/QUqRI2VIkaKFmjxkQVebIJQSL6R9BR6d9vFWASMxBR6d9vFWAk8tRPwSriEwIpsqN0DeRgPi4wOTimgcwU8ScvTRMLEmEdTgU1sFPXXemiXshyr6sB8OcAVeTxcLJU+BTXSGxzns1pFNlRydFfUa4tOKyJGibEIcdoPqo1yD6foLiJlAr7f0nTY71/LbO2qikWn64VGXwJy1nFYnxu8F3yvbh29IMbBYIzUFXpyAiUC9PpWwNcYU10hMEfeNb9PKuwReAj5vfhZWwb+RTCmx2s1jAPBo1vFsGS0j6mzo/Ctz6UdrknJcIf7KkwS90pnXhU866JhZK1fe95fyp8CfiwUX+j0dYmpyCcN07hMUDCrK3E6Bk079izanqs/60CyawhHR/EgtF9fVax3OArqmvTPOnxIJD66BEML0paKxHL6tdOL0C/rpGx+WnnP0+lbA1xhTXSGmymf/2u8JqxiHwSJD3aFqh4LYWTXzN9OZ5Off6FNdZVwggGCOya3mWLxpPO+0vI88F/ycKwigBC8oolV4c/3gMxpXGukaaSLuPfkbKkSX7uXv6knYLjzMVPgIt0wt30+SYR1OBTXQg+/+0Fsvwd4eDvzeSRLuGoTVME3yprpDY5z11lAWNUXzi8X9myNY0PXtt0q/oAi4f6ap433F4v7J81BxYvM8vTPMRRSDcEDr4s2RrGh7VPG+4RWTFMbWO87gUBXreL+x/2abQk+pl3FCzNtUtiT+iWxJ8k1HrNrGTd9vFWAunBJ8nJTfpG/I2U1neONwrFm2WsaHtU8b7i8VFkffvZrF9fPxsIubI1jQ9qnX5ItTcohK4n2ruVNdI2VIgn+rYbEFXp9K2BrjCmugsWmYH0FHp328VXuOM2hEFXp9NEwm+8T7V3JWxM1XLFpEwsR8/uz9voAxku1gUzc9eZ5emeYlsKjXSNlSJGmn3emiYWTRLx6bb0DxDCkNWRtcVnUJmYGO6MZB2bI3k2s9IPnYHAxDZAaIA6yjZFhsgetumzBhCbfDhcEbr/rWv9AhYDiemvajZ1oGsb49kFcOzLgTD4EwN1Ns0F0aK5Hp66700RQ4goZ7M9Ia/+sRrNramjtoHNAsAIfIBhKysGjWLWkl9bCCQsz/PZnpDX/1iNZtbU0dtA5oFgBEIxU33rPxZ0fDAliJYWXJ8U68rw9yX7xSNLiotDzyhEAvSfVTrV5pqlBcVsGgqazGEM47TETvI0PRaxgsM/yeL27XikaXFRaFT6tdCDyIbmB6NlRM46tw76IkEpBiQNL2eAaaNhDCzM3U4FNbBT113hTmsHdkLFlVKv37Sl9eULGVyJSY53/gr6FpxjtHKTm+Rcwxp6CmcDEmQ1mjPWkX+ZLKqVfv2lL68oWMrkSl9Fof9lTpwlkmOKxRWKfIm2MdzCFlyfFOvMCoO+kYONMuPOFhBcfAr9DWLTL66Rpp2hLdzPalhE2yhGbqTa2V0hZvcjJEhs68rYfO8NP3dPK/30TNCEB3zV8kVdtw3z0Bd0E9CEzinjfSszccVC3oXMZnQib1NGCswhT/QhUtyfeq1MXJDkJdSMupB1sjWMgmHyTHkoF6fStf/RGMDkbA+1Tw2xrIPuR4f39C42bUxJgpWNvYk4msaGBDKic3r8Kcy2f2RX7iO5snGP1BVuIuyXIZMgo54iwKFbUwU1sFPXXemiKG4scLbwF00RivSE92trGnyUqNTKBIgT0i0viQBSJlDMicbLh1a9Sp5hGoXW5Tufk2KvAF0oj/uSpTy59bIvf9RDYpKGc2p5hGoXW5Tufk1+aoZriJW0ZZWtLJqH4i19K7pxTPs94mFiTCOioEg2yi5yTy4/o5uJMkACy4LRx/+xs8osapQOceyYifc0ILqWdfg2+5qN9L1CrbDOLE+1annKjM9whApIJYPc3ITFnZ4A8ejYaUUWoz9ZMEMnmibA1CEOxAgAgosBqwV3RK4OhMfkH5T4wUDIy6tJpddL2BdIRr5h7NVJxGwkNN0KTZbCo10hs2zBf7qcHiwTLbKNc9Ikwi63BmLp2FOJxvGoF2rhErez354kry2LDhK4ZDoCPzoHi/I5M+pDcXQDEPn9BaR2uhgHha4zM4oBLq4RK3s9+eJK8tiw4SuGQ5yLuPPxOsBufVRWLWiG34/5gGP4BlAiFhA7Fmgbab4VM9FgRO4KRq/VmTQifePbukcA8yfavoKNdKhdFcR3Y/CAhkZeh+CRZh8zPSd+f65yX92APuCqK2CkV9/AcQUNdI007QebKq6EFPouA8y+V/Cbt89AJHmgKhf+/9sjU+6F31WZ592YAKDoVndECn900/j1HFBFU6pXKe+IDzuHum/3vkRTh7IHsQFm8CDRvJque8TUnmHtRHrTUVhcR0FjdG37+8T7V5gVX2IQetWueKnW1FvEHsPsJhSE3jp8ChW08rEDCZhnMNWsv6kJIiAdkGBpW8l0eaJJuw9A/DtXzPBmYFy7sY/ekw0lBIG6eD11DUD44SmyW9QG51DKD2hwaLOvZhqmCP7Sm+OYCxSEppDwi5r4m1HGxkQVebII2/wHZaCfA/aRfH20A8Z9ghMpwZmFCtI8X6dEaj4cou0VxiNYxPYl5ltUoBrEmREQCZtfcXSiPqNwcT2dt0ALIKvT6aJhZNHOR8kPp9NETnvEwsSZRrpGy2Bg7KkcOypHDstiiT+K1E9BySxvuLxf2bI1jQ9qnjfcXi/s2RrGh7VPGp17+KGASyp8BFyWIKvT6aJhZNEwsmiYWTRMJyEf/WVGreL+zZGsaHtU8aeQ2LdyW0utb+sL1hesL1hesL1hesL1hesL1hesL1hesL1he4lner8qe2ALYs5iWxQfet4v7Nkaxoes4K5oh99u/1VwZD2qeN9xeL+zZGrGf8YesqRI2VIkbKVjvMqDy1zvFLKcEn9EtiT+gIkbKkSNlSJGypEjYy+x3sMVYEuClup8CmukbKkSNlSJGypEjY6A7Po1uAIOOD+ukbKkSNlSJGypEjZUiRsqRI2UtEfdcFgjuLcoaUDZUiRsqRI2VIkbKkSNlSJGhMBJRXnIvPTRMLJomFk0TCyaJhZNEwsmiYWDnVkWyPhvO9PpomFk0TCyaJhZNEwsmiFv14KX1+iXdWcjZUiRsqRI2VIkbKkSNlSJGypD+EqDhoOcFUs8F+VPgU10jZUiRsqRI2VIkbG9r1LOSLgon4mFk0TCyaJhZNEwsmiYWTRMLJogS5OdIbF64d5cmiYWTRMLJnaEcC9RdVPG+4vF/ZsjWM+hKeN9xeL+zZGsaHtU8b7i8X9myNY0Pap433F4v7NhdLIVqLc7Jia2RrGh7VPG+4vF/D6QnsxiR0+BTXSNlSJGypEjZSrUrZgsoDPvSJhZNEwjv5r+aul0LlDnoIYbEFXp9NEwsmiYWTRMJuLLxrpGypEjZUiRsqRIJps5kVODjQ74QvdmRUBIYHJu778H4/cUwXEwiRMxUMJXQtENTQP3kc50ybjK7opH0iCn8k2TgxV3bU+KCb9UOXouEXPvlpmzc4Wa1L66FUwev6cXCIz9z2bzPbJcYdFjSvUj4MGhD85ZPn79l0aGlWkANyz7aDrRW4ulRkhoTtvyX+FyHHjvWPpWuV8CmukbKkSNlSJGympvqCr0+miYWTRMLJomEbZ+tq+gHVYZKTOyYC9AyH7BnR79jI2sAFtpTB2xYCLbLLQG+j0/NdXWRerri1n+t139daCj70+jD/QLterQQ+iUJMFGruxfS29hLwPiGOH3szCFeGjl+zj1BST9sOin1RMCs98q8yNSiI98yo0Co7PAivVRXo02a4SYGHpMK4EIVIkbKkSNlSJGypEhqj8jZUiRsqRI2VIkbKj2w1LykuwhXxNd9XDrAohKW3ZRJzCvMwgRPpomFk0TCyaJhZNETaPoRhhgxc2RrGh7VPG+4vF/ZsjWND2qYDlqWsWzZFdzZgtuduXNkbOS8+2RrGh7VPG+4vF/ZsjWND2qeN9xeK3wKPDPZPrGn9EtiT+iWxJ/RLYk/olsSf0Upx0K0TSSVPUUZu2pNT5nAU10jZUiRsqRI2VIkbKkSxSpEjZUiRsqRI2VIkbKkSNlSJGj/zZ2MRrszsvT6aJhZNEwsmiYWTRMLJomFk0TCyaJhZNEwsmiYWTRMLJomFko4ZeLCa6+4RONdI2VIkbKkSNlSJGypEjZUiRsqRI2VIkbKkSNlSJGypEjZUh639YdhQ34GX3UAThWTRMLJomFk0TCyaJhZNEwsmiYWTRMLJomFk0TCyaJhZNEwsmiJ0baaJhZNEwsmiYWTRMLJomFk0TCyaJhZNEwsmiYWTRMLJomFk0TCTvugVxwVA3YA3QewZa+NFNlSJGypEjZUiRsqRI2VIkbKkSNlSJGypEjZUiRsqRI2VIkaDoNXUmtQKtVBsqRI2VIkbKkSNlSJGypEjZUiRsqRI2VIkbKkSNlSJGypEjZUh/TRZbO3bVfuB/5U+BTXSNlSJGypEjZUiRsqRIV2zd61x963i/s2RrGh7VPG+4vF/ZsjWND2qeN9xdCl9w5j22CmHF4v7Nkaxoe1TxvuLxf2bI1jQ9qnjfcXi/sf1kKWf+eO/s2RrGh7VPG+4vF/ZsjWND2qeN9xeL+zZGsP9CU8b7i8X9myNY0Pap433F4v7Nkaxoe1TxvuFJRXyC9PpomFk0TCyaJhZNEwsmiYWTRMLJomFk0TCyaJhZNEwsmiYWTRE57xMLJomFk0TCyaJhZNEuYQ0SUVbcEclRauNdI2VIkbKkSNlSJGypEjZUiCdhopsqRI2VIkbKkSNlSJCnTmScDzmIwjFyxpfmcMCph2QPG+tMpueeCzUdGbnQdMQkLDutJMI/WfNM8RwG39Kvj+HYgBGQbjMKhzwQVMrCBBLqdPLMmSIdSpP0C0+C98zbIoNjIQlXO1xafev6JhZNEwsmiYWTRMLJol4u5+n00TCyaJhZNEwsmiYSqtKUmFQJbvBou3hXZ0Khtk6BnkODR6xsUpO4Nv43nJ75XIyWii4HaunjEnuDaV9au/uJ6O3mJVzMkZP2qevYG+/A6o7e6LxqT6jPrWbS3HZjLKp5cg9+89rsLginjXSNlSJGypEjZUiRspqb6gq9PpomFk0TCyaJhZNHMrXoQ79pYYKcwa+w/4nEHp9NEwsmiYWTRMLJomFiPnVk0TCyaJhZNEwsmiYWTRMLJomFk0TCyaJhZNEwsmiYWTRMLJomE2weID1TEqYubI1jQ9qnjfcXi/s2RrGh7VPG+4vF/ZsjWND2qeN9xeL+zZGsaHtU8b7i8X9myNY0Pap40H2wjgAAP74hKOpGDCVqhGkMDQe/UUXA2ZHjz15VMbv6LS3oVBlfmGEAsQ6+cOf+eE7M42a47e0aOitoM5SgPpyY9LQn910qC2PnMfRimZenvq/u2+/+B7//ttExki4tnGABqLGNKWqz+Xy/246sad29bizz1sJ8HGhAAore7vDsAKAAU0airgACWUbAojuGmq9PHOs9JhF7imEVQAQKM+FItJTN6nTf/bzzVe3lXg7YrQ0vHLHUo8fF/svnkyE2YsChWHB1h+/4/N1YQ3e89u5Mv2fcbrdqflknxKVQt741xEz1gMfR+jeO41XhCu5GpvWjB3JuViZduBn8JcsW1isbImqfzlxoHIga/dzzHNAEsas00uMe3YRQ72KbAdjNlFFFQVSKtC2qeA24kZ4VY06CEJvrU64xFQZcyqYOrThs26HFnGaZM4BO3TPnTpKYp2Yc8MRDAazr4r2Hfj9QlNcuZqucgkT9P+dAhq4xbrcb4OCpH/1yd4btiEDMIss7907vi1j8IZt3nq5BVraVmwacIBkQdHFlWELSfsbxjjR2FrLJWk4o+bX8fRa7VOaWhfYlGRx5Kfk55PIk7MdkfUk8L//p2E9EW2e1YZ7epc0oVESvWfq/Vsqpsh/jEvctCZqA9t0Zt3Ktn1TdmtET+40E/FpKvLuCMZNM/QNR5cAFgIfsSMEDnjQ3FY7aVGPDP4VaGsgyL+PiPO7kNsPf720c5K11ax3vgXi+9XYPMVC7bi6BOJNfhoqt/cARYAVzbsWelVDjQsavxq3EPrczX7pnGoexno1KyTlXHZGUuxjpfuu8qzrh0XrCAm50SCH7rqAlWFHpgMejghH0dfltHR2I71ifq3tFTzPxhFGw2ehUh6G6gvlNk2PnwIO2UiLXSDSnmRzwbdgoSoqQdf1+vJ79JljbqA2ioR5MNaAQdBB+v+H0NtR9yZs9YsLj2x6j3vV5Ld9Hm5adUqoHXyDQIqhmScB3ZREj+3mPuNWTzEZ18GDlPYPGuVFfp139DpMxvVfTfrvTcAtSbFtnFh4YTKbH+5ju08Djucob5THrBW+2xMvWGMiZ2IvuHotPeGucHko+wvjp2Xl7bbF0gaWwUBkyAf4XiZx9rV6GI/ELWBoPvxSG0aiMU1T7QuB1mregbFOZER9Mc0F0TBOYinB0nV7lIBisclNtdUbyTkAXzYG6VItCNhffMwjNWPrnWMI6u1GakfpntQ9kskk0PP8B6SwgYwgrTFZQZ56sgd0ByYW4c+v3CW9SJwLy9fpQKp6UAelc2ePPWTx85lvrxleXRH4XhhxIcNkIWAMR2pHm2+lwvsb1ff2JxMzfYF2WmiyFmw7Cql4iPIItpayOk1ta6YwDXJBLuOuf4Yakxl/pekLPpBovOTVRtZ3pxMZWF1w5L2aGwyE8iqEseSDbNJGgHdQvlnO049oDK6q1eTH1tWciU/l6X+JnvzGIsD+oeZPWuNNZAbI/9vSf20yYiDu0jzcoBPI/5v84copahkohiEEaZIQnmvZujXElMmW9TU4+zkk87TmTkGA17fuw+9+N88Kj9RIsCIbG9Y7CWfKood5ChETpKTv9LunP4+iLvSYb+4DvUvi2K8Me0QtJF36wen/UjQFPozk3xJc6TyuO+CAzJw9dAtgkMAAZZJwWc9fbpOG3Sf64K4a9kLm7V6RgXOSiuhyZKuU1/sBeayIR7i0YqVEuEUQX2kZEUfRYjVLLsbT+ou+SvSj2zQWHPotanstIRnv4EXDGl56e4DIQ1sTgd+wN5XgxBEONuT33ySFprAr67S+GyqpsEmO7HUGx99IK72LqsU9pcv0FO2S5kfRExw3pF4bBYbnS328F0ZURVO6bcD9o+y2MIxaJ9z6ut3CmJEijX3cdn5NoaAb4vE+GFMtryMMVq6hytiCjWGayBebbVOAm0FhGqFAy8Rd0EDXGIte41vSI8rlRWb/m4yDQe6PF+omDqJT2Ed/4ABJJqM2JXY/QptIb1OJyyTAnB8QI+w0bUU3poP3mFUCRa2ACkBsUOisbV+dUr1ly3qa8M/DbBVj07XkwIIS0S0ZGXuw0zZX84AKkIBdUIu+0gfidfg+LfGCWwX1UNojX7l1BDlRqHYZv0ygevS2PnlTdWVW+VLzAc9ius7MUNL+TaTVxvl80fQPI1r7iM1Nzzm8MGh8g3u1QHON6IH55sIR8Zm56fYc0LrU0Pp6tGXjERbR4EnEFE191Kq2A3XKssd2NQOGv43Y/kfc33gP8LLCYWDIMAaBCRJObdldozD8q6x73C2Pxw6ywfuJyecknrjH+JiG61ZIEqA3eRgre64PnNhdztj3vkg6GrvbumBblcZUvDXWMClsP2QjgMD7qeHZboVmwCEbcOHYftmYZjoafxALIOqtWyeUTC1d/5bVsP+/RQNqCAUpiWPeyKGKnS6D3OLTEtxZJkEG5c5IHR8S05N5HbsYgVAiwZOyEBwWbUqL8Mc5xXJkTKAuq/35QEt1SFmEssKTdf/n8jW5Q1+9zLXDgCck78GonDgoFh1TIlm7R3qEyqfwZwqOUx8P0bVFs3zwUfYBABsT24ZUc6+auK3QmjGcvsQq5WblKb3fTRjc5E36OLAQoJS8lbitQr+uH4Q1tqqtZOo7FJUR6mgl15cIJoffdHRnPmhxZ7X+zJoVRmNT5kIWiYR8HcmC2BcD6jnFc76q7e5/hMZxz0rrGFelP0cRYnBH4TYI72RiyZaVAl/AZXWe0I6Iy1f1cGVfps3zhgKQiOukDu4Y638Dr2GUghe9SL9iGs9bXXf54GaFbfaTpa3H2/afnBCqye0ksUEWzRmtt57VF8ZB4t9LRW/D0SwSTanbB0Aegq+ihTLovai7xh5m1QGky5nuNa32PMq8OjNyyhzALG48BGbF/vooamrcvqqZR+wfnMTeBaP71QcFpz87Olw0rFOtikA7ommz9Vg52biPBPi4bsi7ocDe0gANaoYkbADiSUHhs5Nna3aqYuoQWWq8pDK02EhRjG/umeF5q1TxttZev2obJFCv/6MBiDQEAvI4rrLEemx/S0EXXXPTh5FogMmGCVY22+SqXkE8hzJ8DGCD0/2xnzoceLG33DxKWe1bzLSJ93d87oUFicKc6mPseBAKz9jvHGaOoFraVC4N0LQgzOML18LUDA5wW1i9Gc+OuhLOpkSVfBuoIsE5Vhowt3Q0+sntqoo1ty/QD7HuTQBJAFw4+6EhbLJq4AVMhjHmsudt1gIpoEqV1N0uLw+Kfo8iWKFtUuUC4iZEIufHqNlVtSObl9GUQZFbi5+F3G+eoFnokCjN68yUxeAZQhi+fbRQ9n1Pa6RQkOGabDIEe3LwcW0+2mEJXXlegv9xy4ZdWTNZ7F3y+sbfu0lAdq+xa6gqv7UJ6JFEUO9+Vfb/o63lY8UVeNovODsNBvzny7rh97m/ygxIgW/+ZT7vdj99qWFHTGWEp8m8frAax1TCt5WzgRV8MssI1bf4qpuS9b8xQZouIalzyNlb0kOCFGRCl801i0PgXhlYnNVcrNvnQBDsOdY+7pHifv+MtlmotwH0XYCUwRWzpWodn6X9Z25CJzfDmp0Qlpk7FYQWb5Cu1v8w4n8VTnuKVHRmeli1/8xo+26LlOG0DprHky/TdpZroORxP+A5dUnwxuJYJJngTXzevnkILoF+wCRIWTNuMwYa0sgCB8DwwB+kIzzz8HdDFS6hPcBR/aMUo/cd4jkH7paXZZJjYAg10JssVZnrYxMdZyu1TC6lLZYG6MSyL7RRL1DdmCS1xlMJhHxRisN4MgXaHnNMdnBFdp2BYbHWgmiXmiAFblovzh9H3NojQ3mwZHS81ii2yY4vDmrJKI7q60n5sklJKVKJXo4+7nwTUUGg+BTpjWUEwXkoqCFCNZyVobOMCjNeA9cu0+kWnnYalIVcLOZX75f6obXIJLMLwDBie90n5Qw5TPZe9Q3OL74/thvGvjA7uE3Ruo+xqeJLEi7P1LHWq9qoE27BcC7/rNpF6PLwjF842sNk9LP4XfbmCTwEZAGOPtfp4nXcI9uAO2vQ1xTOP+vc3fsc6Ayc2uXpm67WhBFqgKqlzF2zxAISyTqrD09zjkQDXY4Y7f8OGTH7so5u2gaOXQQw1YmC8170YLgTBf03aWbla5CEW3zjSBDTu3ZrVPS4Rfc4eBdAjgRYoAaoExcBgRT3kEOrBTtBLfNvNAqfAIe5b2ink2hexHN9AYe6fDfNfaXMRLHAH4+/WWbPFlLk5/uvjSeJFtgBzcvZRGlpFbbw9UwcBmy1VT1kl+7xjBweOKL+nbQeo4rCBBiAzSQgFDmCUJlMTyfpwOnoZvPMgD3qqgnQL2DEgM6E2eldfX2hXb6vmLKxF3Ff+vcRLjolYmkBrWO+CQXOC+rigxFvlIb4wgD1pZPS9ivvTkT4c9gcZ+XeAF50/fSTIgOMEXgKa6EVT2Pp7P4keMXstXqgW3Dua8D4Bx1Terz58J5a38uUqLzBSQ3LpJIsytbISaNM0z/AqopXImzeSMDxgzm1y9M3Xa0IItUBVUuYu2eIBCWSdVYenucciAa7HDHb/hwyY/dlHN20DRy6CGGrEwXmvejBcCYL+m7SzcrXIQi2+caQIad27Nap6XCL7nDwJSM3lQBPRmA2y0DB/bWPwJK2Ngc+axeiZNHAYQi36gQYkN/STfg8+JzX6uY8GBiIx0f0puI9sT4t2gBaEufBdurGe7BHOr6WD8lBFrSsd5400f2QfcfqMKXczAcsZuLa6t56/xKLL70yKa9PcYmGTmygf3WPe2acr1jc/EEz/KuZMJ2Zl9oT675+KRvWbfGcv2rzaf6MNNeKmp5xxaVhVqlY+1h+x8JEiOB84dqQd5Kf61NibXqec5gGrfg9CNZFby5SaKbIktI/2oQ5wFShNSl53upIbSj10BjVDQqTF+mVIXXkJcav0YtoYWpamEypCqI1yVB1NfpXBZ1UdLgglclBqeBciRuXiXHPzhbnF2lHe4Zfzpc+heTkGjcVns60zT5m+5CqcgwVXOnUIdlAgzEQhuXX5iAH9msSRnWUrlHcHMsJkyk1KuqKarmSvX+vKl2hvargElOTWAzBL/bx1sAiORdm7CxqiACQv/WZEiVe6blU7+BdcjvkUxS9XxBqJPULok2+ORKQeoCiqF1eT1g07tSqWSiQmPvk74y3ED4BJktHGLVsHH+e/8PJT/YzOQ7LESf/y8g8NCmWlKp4nyTGMsG1VOwyc/BdjpczGpLexsHC9rj/mA32m5H9AHNYpVwvyg/4HgM/V9YpYa8BVco+XZH210y0JxGsiR61e66UEGNWk25Dd9AYxWabcoV6FmDt8ONwLxl5c8aK4BbRgLGVDd0wC4hQd3BIdRjr1ZLpTh8NhqLq3bScgiDIbZLamkospdvRKvbibkkq2Y3Xnku+090uJ+JgrCfhqR9iD+paEapzcRvVJaIXmILpGnweOX0j/LSAWYSW1UvOfRqwOP95KPcZjx+AgJjfTXPs6WmDFWYFQDzloJEusFA2aXDgLDufJZffXlWTlZKzG88A5FVY0hvxImFAD6qg+MxGJG1YeCyvZ2FNjN8CnytdelnIy/Ow4pEJbw4JXiFkkyrc49LMH8aa8KR2LKg0CdT9JNhiKmEYCEB8vnsRgj8isoxBvLAu49sxZcjwCns5biZ9jiWYaDz3U3l/D240Hnb6f67X008FGL2POYO77bbWjAgmIQ+uZ2mWk17oq7sbeu6dxigU70oaQK62vhsrsYgplhSubCSxF/tihafxsisYhdH88fuatKoFtgJEyaZgZee3qHsdR9qV8kEDY9kX1jM+/kIe4ZCV+kweEy2hqvf3TVQ+O8RllTU3XJ6EeSu1JYeE/dk3yuVAXgKKdwtZ//bddFldTPjJIdHSXI1zlIYj/IquxLSq0jlHEdBk3yrebfA5qlKRnfReHK78JAzUcV99rQWBL1N9/4uKrRHFXAIAWomdTREku8JuKrZ4H0meRDfHeBu9ExdzwllIlE81jGNOTeedtCZapyt5Yh4FyosPD1qPnLbYb5dx1GL0/+VfkL+ibqWynbUuULg1Pw7t341mYdihhEBlckE0ojF5OFRNyk93XoD52sK5wH1x3mmRxltIxO4unK3XZzn3qWRgR4/LTD/7J12quXkGRF39yEmBMPNvJOh5hi6+CTGJu9EZfw7bB6FLCuKFG4SUFMWFIiLKl4JbRW/7xFay4iu0eoY5Jc650nlUO5SKpDcLyfOrhTpacoUThLU7FR3JX50RK8xh83ij2EkFov3iDOH5zkEKHGBequC25o6FDIrDTCk81bbCVuxwVZuVvI5ADhPOrV59tSXq3VWs7+BP/FE0xRTJJXRZxAAInCMPKGHos18ECi6rEh+/DWrGZq9lQjtDCszZmQA4KniJwCXnffDnM5MNvGi6B3aiukIIzVMvRcwRQZvBaTkWnkUqEKtgqWmjZlHeGJQccRvSRCrpEd5FAQaQjpTHFDMygr6WNnFai/HNgpUisYigjOTBA1WZ4VH9I5NJflWvp6TRUYXzxvzj3us0dQG2LCnCoAVZQukuyAu2mbtDZXMsow91T+QRpGdj9nbFyYNLUUa3fc01D7nHjWEbxk91WHckmgrWb6tM5KslEFVk8MP6HHabENAybFj5QecQfTZF2XvC/TkyYcAlWyCMCJR3WEMBIgHMyN441vekHNk0k7guwhhME43GeVAISU7ZpqOs589RZjWeUeFb6abKEJ5oqUMGVA2hWuogzIuGNlvQSHtZ2kVzPpLiYVImd+f6UlwdMoaUWBFnB+PM4/cBqXrvSCQc0xTkFZ+xfwR1S+lWxyMpoLxOhPD9Shpw/oAevRZ8A4t8TEaNS577UbdbNBLRlmLIRarCdmYUscK7H3cOcAvia0WWKMbXgCCHtgOh9jeCZPsJ8ob5vStZG0HXL1XxNuhutVS6Y4somAtlQsFHhbVAvR94oDlAcJ6tHMvJmbxri9YOqk3KBIgZAiGumaDfsrM6TqJdJrR/779JTfAV7/0h1wDZAJZFdB2MeJYxbb8HoUGt/nVCPPpGR6LWPYyievQ13SgRpzR8aHXQdjP2Z8NMPI0AKiTsXl33z6hoCyySrI7bo33A3QzxMzCGQztldj7afvjpy0Ek7NaAPEuh34hx3KgcsChzFSI5kEmf7Hr4Ed//V9Yl4QWIemYPoKu8HznRSP4qu0MVIhJPir4gigc/ZL156yBl3nkiSa1gNti3dIP+cBy2hDamKc1loozPlHLKIe27yc8JhiESyBB10qER3tc9HcDd+HifBsy2ETdtxfZnc+UlQsGafPSb25sdS0dLlLeuVaCY1u5shwg4QrVFM8noCjQDkGCI5MAnwZXr7tM78c4ca5bnCupj/4B8Ne4axu5waViiZHlVrWibjtMQ51aopfeWAFPfQHBECe9fXNA85sEBUblgjk9hABQK1HGf4218HeFzyYQ3Nnw0w8jQAqJOxeXffPqGgLLJKsjtujfcDdDPEzMIZDO2V2Ptp++OnLQSTs1oA8S6HfiHHcqBywKHMVIjmQSZ/sevgR3/9X1iXhBYh6Zg+QnF5VAtELJDhhksKTevOjQbKquojh3zBGOip55ziOb9wBcOUt58b0T07rX9D5RbBiICNYBOvs0MBbDwqTk76MVMsaO3NLYnBhOzNCDIv/yRLUJbFiedANxasLp3icNkPuclSNKLVpOYPhAcPI5SJRTIoP/GZND1k7AUu3q0wsFE/hmTpx4zwJ0cSA1yLNuFEI4dmQQDT3p4ITokjiV09KmJnpY6BOouH4tr254XCUW1UcBFi1bBuksSfCdtZXNGjl6ZwdqoYSkHRiJJZLuGu1ZJQ/8ZKigDS/0/lT5TEQ2pzT2TvnNizLxD2hU2Ik9ZlcgshDaw1+wvXOCM8TkgeI8jPE4SjaS9hFEenNcf5tEkG+FN6se5zxlHfPCuVR6xptzhozFnA7cHz3hLC5TeGcUZ0QxJm86lKg49odkRFVWCV1ho21pKmOReixANv+YGnS884xpZDIyqTx7BZedt+YHSPK0cQZA/IoLxjGIJc6SxIkdbN73UdPIi8g7l+9VaxsyNJqDlOeWRTIFWVL0HW6MoydCfiefEQoS/SdhyXCcNTWbeIXvRlNNJLxd8XutgZHTcuv82Hrm1sCkSJW0zoFFbfS6cDEuX2RluzqCGPmq5BSNrafi/81A1zaCp91hMn9y0LXKsKKNNLWv3PbVYxH4oyt0QJkRgf4tbbmDJnLEHDtqhy7pj34KjosrZloOv4AE5Kym56PQSIUP4vwR0iXI+3kDoxC6NULF8Cqtqimy2Zye/boaMHdnc5TACpAIctrqZmbiuhOW7RfTNu9xmBMcN/7pHHJl0Z9eD9ynXh483VzpWfA/RX/o+GyhlTpC7R1tK/ry6jQ3cpgGorsmbKa8tcegFWFdg6zPeIXA5HgGurVv1eGvLxXczz54NF6LU5QSYQowqs6dN97uXqTIdtesLFs/YCsoOf3Vga33lrWfNA2+bRhqsReNYwe/HQZjuy1PuQEpXQkrF8+/CFRvAerEfsirr9DiZdxZdjKNa7RQa1+9xHfAXLNtypQ3E0Y9pUwJVg6+IqdNskk6dhhI9KUFw6C3AUlq5FWZWBE8q3YYBKZA6nj0BKYulWy66gA4BtWE3n+N7eH+EhBBHrciOS7fKTL5tDQh/lxgvh1F3zbFEBZQ6lugA95DJQWmLVkVD5lVZ7oz7rD4rKOT8Z3WbylMylnzOza1SsscAT4NQYpLoTDXAX7ZgR4nK7mJFAMrfuC7KqIIWUvpm3e4zAmOHDhKdBauE3KTjZ7A3ke8aawjrVEnaqCV8XiQW/OSblQKBmIKIPCup1kC23hQvkEwZadBFrndF9rNRgbxwqPnME9oRozudR4mq9/DwgQq8A/0An01t5jTvB7gVat+i2soaLjj+Nz+MXagj4u0k3uHU0DaKPKeehlX4P//dDUZ7oRMTd84G9SUvS9Pm+k1oUpX318d593T2rveyU9roeZXGvPCYR10cpNcjoS5rGXQVquxEQUAnqT0xWScagz/tgq8Ne3xhHg1m+uMzs+6Rrxkyk/3Y+xoW06KpfzAyum/vdyJMfiCN9Anb5G3ZzjxCIZbIP6MFuXP85a4e8WSMiVJga/YIiXG/YdU0XXumqdMXQ7IaWkva7hErPBr6Tq+qbaEtgt1XMiwIrEH6DzI0fQDX+0v7crTCAm4dYrukLzQGYdmGkRYnN0f9Oe4jtrtrKbo+8TcVv0cf1LSSVTKyiYcRvIT4l4/12MdwCVYA5bAzCogb6D4/LKgPgE88wkuGyNo4QouPrZvwqYh5upXLU0YAO1YbB8ihSL3coR9LzyvAajlHMGIBv1cO6TD3E7eKGf/7bZJzTukhSUIOfMty8Wp/d7HryotAbI7YPEmHe+gXyQnjFQnpdHGxH4yHxs496v6HQHhLmsD3uLIO/fSVkEj74XruOg8XkfdAZ9reUp+vgxKYRdIt+3VTJnGrl2xkFLbA0sjZBXBuD0N1RHfNCGd5s/EbkjWrjlDT9SD5uKGOl8iG5OohA9OmB7z9+zDing2/q49akvXq611C9ON04M8uYJvY+3xVh6uDh1osgD8OXBuDuqjaorUXVdS57E2Tpi9VvYkRtyYLTKZic9meWK89sfIK1WgWslbKwz0WLoKQX2f8HmiF+suhU/LhxXRsX6FVOBYqTyXdNF2l/w13NHGQud7NrZgnNJLssDGbSOpO7+MlqWhXICikMUxjIAGw7P7yud6QUHExrgR/ZMu2Sxcx6RIdpEIJocthL4vzrTCkJdEqDeUdHHfnzxX7CDkyEIXvp3YsU+n2SgsPfMe8M2HWpzpPqZopL/nz3VSAHzFLCg8pXyIsjeu239meR6VHvzTS/DjM+9bFH78TV8o+qqCyfrUNrgQVZN4HAAw4XJNueW4jbxC0QOvd+YYIS/B7xI/vh/MfzCgR2h/1cSnDDnqesdOBbw5YBiWmCrnuPP6lzrhgiG8AzT3Leazzv3kQ9hbqDgb2qZOi51H4Buthd6EU7E5wMBdBcgvcYbmUqLDwAxmVMzYK02+ySBCefhi39IWFbVOqAl4+8GaaL8ZBYZybOvEHEblzCi/bXrd76kbiiJwiQBGwlm9xyctlOxNFz+qMFAotqQyCLbiDxKUgc8bvdnOYr1+5KVDA7NnqehpSZmZq/HsmPP0obONKoJ/8f6ySmYvX/syF+FT/bKkPk6Jc2iHFhKIJYFuUd6kQAXZFRtiedqnBkHIC0irI0Q6DHoTxrzdboJJUlCAmHcQ2mX4KiqT93vKqQB2z2bs3M0ckaAAMRUDwKLVr4WO0pqzfMw/HSh1Ub2srtGRo3TmU3iQ8M/iVQwJOmqwVdL1r3uuj6kxIbj5kIxEimtGO0NadmfZoquYdNHIeZ5HG5+4Z7oBmUK1VZPLGSTGIY7XLTSRLwH4+qiTpuQ5YqekUXCJG1hlEGShJnM4GPNIimKtc2uzRsqs+5stXAq3KtQlzY+yArJKaz9i9AsEsv1iZwAf6X1IwbgiFyiG0O2G0Fy4UyRswkQqAZ5no4BWTmFZtPJ8ZK2ghFz0Cg2qQVDHBSRyY6s/CcZ5C7RCLcY2RW1VpSoirsrYbrjk4Yb/+RJA74ztPZ0YcKwbzB4Z6gMqoSvxy2y/8RKUFyr05ZnA6PALyoOs+1YzMoYrB531Gn+MaLMYUeXZfzRo1mpMwwTSy4r2MzkNoz97uBBDrvWxf0gCg9+bjkXYxXCv0cIFheNZJlnwsBBSZlXjKE+VO3pM4iFezz9BZke8qpAOmOjXneTOg18aDCSQCn4RSiwdxkF69QBl6BCbK7IjxFRk/5W4tiBAcjdDwT/nFi+Lb+fGQjfc0bL+DJKk7f9D9vmM1IXg0RqAJxb8ja7/xOAUPGDUxhgTP01ZoT0ZGg5aGBDhTR7SxJpq9sKx1mM2F0GW4EkMgqvJwwKgIrsySn3MC35TcLdIfdX3+XFdyBmiANBlEEJwdz44CebxvcVMmt0YohOaBlr4HM8mUbNQrN7zBCV+DwHLUj5moIDwhlB8P1UZ9mQj96TdO3rinOa8pS9lXuLrFEK6S+M7skGMM86REgTQR5zwIkxGVh4YQ+C181apjqi/4oG78Bu88oq4jSy0uSFA4/RWL1chPKhjtJonVrdpQ6fQvE0QUBMADEHRdVnSnCmCkQdjrXh4qIKkSc7p7hsOCZVdI8b/dEBRmXA6xXE8VKXUGOCM6jrTa0LSLfnbKxs8JX6ncsawINFMLHUP5j/NfukC41Z6vY3SX1sDOauwvcfqr5yXFCdydcEfyPoPZ1eUd8OdwJPf3yd408yQTZskYxBsol28OrCSZQUhSp/0kg+hw9BnDJI4Xb9w5oYq0lhd4uCWOsxmwugy3AkhkFV5OGBUBFdmSU+5gW/KbhbpD7q+/y4ruQM0QBoMoghODufHATzeAZi0BzX1pFsywMCx0Af2rMVmbTo8SA4KrrDx6KU/TAQxe7YFnF8tie2159t2FKM0D3j/10s/0Znp/2Zi7eAzARsx2fo/OM2ao5zUvpGJtM18SXZouINasdN3kSDUn+UkBboYFKwcZgYof3acbYey3570WW6rgMxUIIja2bo9bk/UKCnwVGo/7x+xoWfzHkB8cqe380zinF+d79bMNrxusesyTLRFFvW9k4FwYMHHKtZtXd9hs9w6CV1SrduKmcVKnrCOLAyfl2dC1IDgffpc11Yz6pOMHzHROhuRK3iMxWGI+U26/CLN0utfjssaWrek56g76nOSDJNEMdT3ZBRQpRmCcfr7Mb/L1Bd+jd9PbVExgUeE8M0wBfxoZ6nk+wnAfcvAUMgwPw3S+T75hsRa71pA6yiPeZIPslOQQ8a9Ff7yfpxLvA33aNAAYXN1ihM92/v38czO7Z9W3xNbinutI9wE6sHXHYeidlR2EGo66sZ9UnGD5jonQ3IlbxGYrDEfKbdfhFm6XWvx2WNLVvSc9Qd9TnJBkmiGOp7sgooUozBOP19mN/l6gu/Ru+ntqiYwKOz6a3zfAYpoLngiBDk9w9tvAZBl51UYBk4Qoie8DK4T7mf5O+v+NobRL4q8qnKIqujPDsc6+N7Pqc/4qInFPKsOUHP6QkN6f/Z94bEOekGSpcy4AAArI8NU/WX4KAmYWIRbdXNFzbyITChH0c8vMzpg/eM3Wks8KI5DYYF+1q58BpUOF1MMAaeaEjVx6S4YhXytE8mdyqZas3udSesCx5EeB4vJ3JhqbHIIvLpwmR4Klt7DUsfYTcDEMvxjcaXleuGy17x8ezGE1TE2/uiYgfc7UA5b+CsJpxQU7UqrHr2GYLGwATmSU0wrqXs4/HXlKjyNqrflleUMZpZjb85E9VL+LvITYoLRvzyrDewHm8La7sLwjb0JLb6l/xIFJ8xTHZUxRKk6EcnNnSLYfHbZuW5GiDP2pcmUq+cAneADY7X4wcb2WqZMIYALYesslgLEK4M2QBK0uDNqGQUdgL/ODrVxMpwpBc1PAWjg9W/pwD02glx7k+p+MNePUh5B7MngMmV9LW4BJJ65zE29nVnl6QLRtDyC/Rk+WES/ANb2O1ZinsT/Qm8e1yrni8vc4R2dqNNgSb4Ea0vW275r/P7AUuhpdle5J08d0SG9mtmVAkOUlwx+zJm/1ptVsXgVaA9W1dXLeEkOZqGEGmB9fpG0qJVPmUL520I80ecj4r0jkmeBJFzoeU5qsC4FwouhKNSZm2KYQxBVyhfssGJO9yZHdbLHn2a5Vy2oq5A3qrlh2bsDRDmKbApJFHdLyzPcWuBRbO9PuQIA13szU99yCNedAV7BtuGZJEUxoBHygw8CfFfAdA2wR+D7AMCJuswrifh1G4kMX604O0DqIQQE4O8p50XNMTPiaKY0opriOb3o7XE64c6PesAIGFwTD+08Itm6QffIOCzWq4h50kNoo9n6AUTpxk8ceRDJBHoe8HnpFv12J7UJJy7BT7C4pWkROPn+brfOibJaZqr8xZ0uggScRQNLKB40BLygOKCY/F16guGjpFf96SJQJWaVAp+g+eZaN+sQgTikLGpMLSU3cUGNLlzZO6B7VBFpswkNC6tlnC1JKgxHnEQCGj6CulHzB3snRX22S4ZHfNpQgESkNJYwm7wAAQlPJvJ7VOOUMUrvSFjiPQWP/v3qt1QXDb5T+oew1mtQ01l+x3UKjIpC7libvI/BEK2TWErddvDkSZu9kRju1k/cjpo5fNFYLP1wWPBNsh1PI0VTFkUEiBazspd1/YC7D2QDx438j5kuvdS7eR+Lr0UO6Lx7CLc3ev2E48pd07nMioySb6etNM563EeU3/UUDdcXS6lxSfZpqwagt6KDhO+GPGIr3/aa5PBvqflAjMgNi2prASFZKovspkXz464MlODkTDtuJSgju+1V92m2RKHaSfImd+UMthelACgo8MqH+nh9W5OQWTRR1TOPchMRJDNh2kY+zEcl0d2e9UG+YicBChKF84uId4380QZU3zRxgzHZY9ebQoGWudod8tzzqBQOfLZpTUEXgNUFrH8eEmREABmZpwqFrptQkyRaqTittV7/Mrt7P1Vs08K2gKoJDSRMs3tC4FLkv05SoXlyVyC2ePs7N2L2A4EGiDN1OGa/7m0lITkhqu4nQSfsB0F8xkvdfZxoRslP6DyRIVRRUUDqCFJwEaN/UAuT8IiENvsaifSkOaCcBGdxQS38wovoKl98Qj+jWv0kKXDDk/VvG9b/ARwyJTwo1XHoYmu/w15R7kX67hPxso31hdE4HIdupbSaAa2ys6RNGtTGY8t4xfbRNT0chx5ztAbLWnrRZtsXGJfNULXbrKOijDIyvKV/63Ys7jcPR183klJCyUVSmdb6X7jtivdS6G0X282ETtbOjxb7ltM6B/VoupidfEuVaL27iO030RmRubb4m3LihPLSDTx3/dlruEzEKQn/03XN9Rau9hUCtdRiewtKsyWHm1ZgAESHGPZKB6zwsFziOEOiCQsKDVZTWP6/k7ZXRMKjgfj/YMNy98jbdnOpUN8tI23uk8Gd1v6jtL/Uq1JovoW8zcjpMRv80k1oviPBUXCClAjAx/SvNmUXU5ls8JLfTkAMDV1sDPx2fxsZnnqWzfL+Sb76K9bMhVLjiKMwOIzwuZEHVSb9B5P3fou3I7XVpQqZidDN4jNuXLMlYqD/HCiGzk+RHzXPDWQyTcUzHEl3zMhkwkLI7h8c+yFPbgAdZxdqj9n7FbBQN6IpZdnevVVMHObk8j7pZT9Zt18NwuePvRMrDxNyCaCz+5cAjZsE6S592K/hPtXVF3tOywC412TQ+AcDpQDa3uEj2Sdf1mOlR72fBt8sgwGxpWL6OKp7xo7pFJmSMTVzxTnks0X1sDMVrzwBuv4DCmlaGpzYQsPKrc4bTp2DvTYwPR9vQ06M7eCHS5+p0r5n/KVhN8tjfpuFl4O4nYVDdw/UtFVf4QAoJ8wV+oPEfv5y9m1fPfoSVfIANXcF98EhLyJdtz//Z+lbf9RAsoqRsz2YH8aVIOCf3aXudYUFcXmW4FbCfvt4Bniv0RZlfTcKEweMzt2CsxTUoSud2wXgOEOTNfCiwrIfALDEBBaSdF6Kxlokn/h6xQo8Lcpj6BcwKqfgf1yeb2xg7rZcIbr4o1fsZXSa9RQfqvYpZRvqTHYjXYv5VYJ51mHh/hBWNBMAakBj40SVkKsfWuMUTSZjiyzj1QjTPwygLhYDQu+/hSpJrjlflUloUtUm4MDqxz5BDq4KwsPTnqdTyjrIm1bhb9MZKULfYxHutw9IkaoFRG3PW731+NwkPIUJaDBaBIQkHGT5eM5Vi426Y9Sk5gZs+Z4fzJ0QTu+Ar85j8i1R8mhzdVXhw84zXJbGr1QJ2i/sQCEKM4Kj9vKnnuVDJ+/V15ol6zAcWug9bwqzeDYMp9p1yDj438L+hYYFWyjGwlmlwifap4j1pKerYVje69OBruaJQ1Jszv1BuV/CXrgy5VDhMWKEUG87AGcIR1u8nx9urGuW5AtFvYEydHH2ILo9nOUr4iauaYkFeLCCoORSysv+aI7z4uHV4q7wTToq63TegURjLz27bAgBVRsa4MHM8JKmyWG+NQqUg/BgY/3o8KwB/ylNVVm+WfYS98EMx0twOMZD2v2apdZi4oK5udk3Z+ATrjR8UCSvKY+UnfPFfKpQB6PNAoUaY/8uj3TknQqrDXVi9053R1oEbgO8MzzOs72OlFuyL6FxMFQLSC2Kv+pi92IFny4JDm1DYGlVsb4lhGBfnCbx7TR3+S01QRJ566nZsJ1fvhXzgcLGXz531q6Nsf/kdDdnGxaW4x6h3X2G6EAJ2EmZ4b5rV0mON5SyIoLg8AAJgF23VhugJtYJoDLEqR0fJvB4PZ8HIaNq97DXHAv/gPzGtWhkUFOdBx89gnE1sw7FTA+lDeqi2EdGDBN2qzPiD5JGtgFEl4dERJ8hxxaCItmvS0pWuFrtiSPHq5ml+noTmIS9nG2EmQeISZSL178tjJAO3duLg/B3uKeJYqtFTT8XBYlPAavyn6s5Ci9DC6Mme8WH2tNE+QtlSDgwJXd9M/DBExFbbHFZ9Qetzg952R5jnPcxmNkI7TcTV4MQO4NP24YPLC0dttRfZCK22woEWNN1AXGSVDNjUYQtJ2vuo9PwQryNKCgAJJV6aqnL+zi85SoSMzd7SOTJfvqnw34Mlp8sARjO38tq6t0Q3vEENQLBsP+UxfncpO4N3h+RZw1lvfplRE+t1+bADJioQF4GLr+iO2UQgFk2Y9wyJIBdNB4P/SYyYfR/dEDJhBeYGiB/vjjB+3z7jkGn9rNwr2TASNS8D/tCTWRWDcSQwg1q/F9wyBNVk5EU3yho4BXzHX/GUtJFxnkO8ROXQqzR/gyV24phL3nv2fOrht7CCFff0GC6+ao3uYGx3iOHMceLmiIz9Q0GmuIRbt9T8sB4BHBLOgnK0VD1Xw84Xzp8X0Fu60tAqc2qOk4wtit5LFWdvS9l5plK/tfHbohrKVBAYiPqBYhOFczj7H7EFxJM94JWo+6FgK6OuuBEQMNUViyVclGYAxstRtfDu3yKQC1cFlFYc5RdItIZcPHWZMTQX2L8DExZh4Zy11eV1ZsMJVwHtugpxIeCcGaC8FVWsnOmaUcCjhWAEFLBIksDjYe79qOsVqV1WysDlMc3j593QnhOg1K9lDvH70o0Ti0PNgm3I4b+vSjYtuGPPVtHzDas7qWC1lN1oeQVamIayUuLs68F0DMLOQCb+H9/WgLqSn3xTboGhcb5WKYt6BSKaOHdKtmslLi7OvBdAzCzkAB7NlEZnmR7rMJlrGHxclteweGWqOM7EOWKn9K7QK7OcvNNp9k4KK35uWvzEEjslwGcssr5bMt8vGL6AIcIrAMESV4g2SgsumoImdIc8dGmbKYK5do4KtfkBFae8lGT65C9n6KKiNfHqnuer1GLIDEu/v2GvHIuBIHFT8/A+avyh4GF0WKt0bUstyJcOBjk6BEl2n+W1FC1ccBgvRRjpV+JGxDZrVuQ3h1MPtXWoxDmgwCdJOveSdXQ34HbfJ9wxav3j3BwMdXLSP4libYf74LYgYKpAs/+Vlr0gsUzaWE0LxPPYBF75Hg3oQpUm+lNpipQJwfRhWz11GDIdcutAmN/a3aIi7KdNoKRFSPEocBhtgfd7V9rYOXpyeZpTRufgiOW8gMgtw3LnaWU6+jg1JySI1qug/Vn0YRMVRaXnXwYWR3MFHVzAAFy4Mw7NgemtX/58aUpX3xNOpTF8fLQk3+XMkofLXwtLHWTDmUdEFDOUxyVrlcwv16u2wwdteweGWqOM7EOWKn9K7QK7OcvNNp9k4KK35uWvzEEjslwGcssr5bMt8vGL6AIcIrAMESV4g2SgsumoImdIKEyTq4j0RTHMQNtCE4UL2/ySjUffUQUxJFyGdHZDF8dmYD9D896g+fGksfetUejYINsBmrrSMYNE52Be1ywe1WM71bYHvWX2sKtmytnuEsNKnhLDDln3MbuqV8UhdTlR+gNEqGi3rVJyjz/tOzX5eGIDK6l544a7YPN95JcVTlp/ZNwaKcgs1FwlTXhZ/e9evYubSOtGLYep3SBPSvJBZU8MLo8qcYv4RPoi50dArcb+hV7vMao3VDhrSXYLFBFpE4vV596JtJp5/iiI5bu+gRSBv/VCB5G04OYVBbZTs13u/jE9YZqvN9SodQpHMiT4Z+Hzz6wuCjsE5Rs+OxQT0qVt7fFBmuT24EptjYfHAKlhoLK4f3TGvJ6nYTZcCy8BDQNDC/+Uzh+HHtGkeB1q0C3+9/+5WCeTT9eiPMOK8hOWaxXoljG1nMsw+B1rQiN+zyEghzYFgiFEU2fLVII5eV2Shwg+9oxDlDCdm0+seOoIjTlbIvGQyDDtxo7Z8PgK/M0L9Xx4DLOBNgwtQ06UP2sq/VhkCf9+hdfb7o7MFUvSEbYf/thCEmteXyNjVTZl5DTWuqh79cZiIZAfuSDKvsJ1cJUd23dJlsXd1dkHCutnnjnqa092uIvhAry04l5dcqRFxyj36PMM2a7X7HLlSTmt+yZ/loqLLtNury3CI3stEa9yuo25otfyNqYE/lVrMeO+FnqQeTW+UD2IioTZ8qrDgkJ3vh/DMNOXfm1R8WOZ007Bn9ddDDGvlrFXfHNGKziXtiFj/Rr+dNnGM5JODBMs+pzQJD5rvOEYOJg5b50TTNX1ZxbS92lubcTiyZhJ0gkNzE6y/DMR3WLjUSskKhBQmQYWvYT5roZCS9/OU3WTe0N5nafbgbVT7LdQ46NQ6VweaDXCpZgqTx6pq8bejh7wdTOgDWjRbk+uwLM7qe2i4ATCJEb55KWZpB2W5XIE5vz5DBlCDS5XXeR0AnYUfhanszt5RtrJCmvwpzsxEMgP3JBlX2E3Nyq8b5TBvTAimOo136a/fIfd0SzVdI4XaZbraL0loZ4saPSsBEiGMebN73okCCyRQZPcCCH+vSJGoyBq2ZPKXXs3Dn2tDGJgv+UX9Y+lBE6noWORC0b9qLXInMPgtx68L8TlWzgtAw39Sj+uz6nvMe6iu3xRuA78wOlLYKc5c/sqeozpDaQBrzOltKm7ikcam6V7XUJRVu9bgkk7qJjhr4U/ZPLjUk2hEfwRsdFLTRxbKxwq3kla5n61U8zkOtLIqsi+3uD3zXUv0AKgwICliSri/end7MgrMop6JBot1qeG0sBZX5pobB5/F3U4TUlyVGYNPPsta1aLTjVwNjsyzy4x2R340jzOuDMm8xJhM0wr+FdlZcorMQSNh/A0wTNj8sFtx1LY18eFPKUWJxKjAa+kaFDjXYxyU12ESzSxiR4sZVk5XqcDE9TUR8c1+AbJdIjBenRruGeJ0nSR3MLl+SGPxuS+OTqEXzJCtinPTwi34q3hUo7361UC67PU/VerOEYqRCLDhl94323sxrTJ1v7X5CotpRMm2WGsUZVWStPFc9tod4XXfE7gqp2ucRI6UVJd7euO66j5ScHtHns43ldX/lRJXp00LN0FNP7p1cbkkzKdEDPFpiMNNDdAPThO6tk2kyGOYGX1WYJddSkf3DXx7YT5V4SbaBJerfPv7k2QzSvbHyCZOG9tbJ+J6GZZfzdx+G2A+XjIu8ZFwA/gjY6KWmji2VjhVvJK1zP1qp5nIdaWRVZF9vcHvmupfoAVBgQFLElXF+9O72ZBWZRT0SDRbrU8NpYCyvzTQ2Dz+LupwmpLvbRXFMJ+sD5rqe9xPNChLCGQyWD9t89e/U05z1r4BktrwavCGlctQLsQKQu8c3kaO3nndIRTHneKLesADC5uoOVPGhT2RZT8tHfiu8mfL3mHrkpQNoMgOsLPgwDgb1YBK2/E9PAES84jIRMSpFUmpaYwI07DfJkYZsK2b237/obevUymEuP7tVUdq0vKcVqTfeYz2r2X5PER2aw6bD1MidnSv5c/FOcbO9LiOblP5OdKyNUbMQL45MXbv7UMEEKUOvDS241nFJ0nd+yS2lZo5R76GLTTZtiTD4sECGipMxlJhFcNn3gV/unLJJ3RZIp8kXGyTGpcB+UpBD7dI1N8ASIY8cqgLJ8d3yt+RlndJVEwHzRF+QBYbNq1D1jjfQt6NH4wifgp2Y2P9HYp0BrLnN6XJqYjKMI2JEh0bLFGB7ZIyQAcM6TnzEsl4CmRwdxRzV9yQ4mNu5NFhwD+DZajIJhgOEErSzGXExCqx3wKoOnw85oESW5vVobHfhDO5WxL9e1LrCMj139tiMrWgrAjiP6Nik4DPO8z+1B5XuimUPNsK+SLewHkWV2r9FfE8sWRxrCX+EAhmUdTWyVKbDmkuKbw3TuWYdmuAPxbvvm1rwaVhHSI//aHhf+9MqqZ9iraxdbiqUjMoHSbtT5L9N9xiJrZdAFNWoVPZLb/oxTBbjQJGaX2QE20OdR+/KfULk1pY7S8XO4YkK+sPZs+BVe8kddq576dusmfyfypuIe2ZDstqiJn5K8l+ePeKOuMNQDw7xBgKyfEMQ3uoNSRB1oLMtPe86eBsBEUQE30+72YjCASJ/zhC1pcn1IEy8MtQjttH9LrhPrOdnAqkyKkF8ZwXBbbyumRoqLnAZoNngDQF9fe88ykzfuw0tadOBf8qGX129eqqZUf9XrxWmYOMoJH80S2iJt7UV7I5NmFz2Iqb724FGX+nR1XpfUsJm0y1eKZoHksxAR1w7ERz6VxaXNbDNR363ROE4+1iU+gXapeFvNvFs4njiii5d6dMrV3Eiuy8iyd1Nyrqb0yzHd+/ADk6dNsMziaife/2E/2kK4Dq203i2Xs+TlEvKsmMcG8TG7LWtEGCwEL//jcivb3cM5zU3aIoemUQS8ydCHF/FybPRcgZUYpb7TXOKUO+BJaaztOxPHW1lHKAC4hzmGcIxqBp46R1jGRW2HiVEoN+8vNK2GUe1+ndsG7Gy/tRccqDWOn7huNsGlckFaq53C5+zLlbdvEbiVSspYZitWjS11Ndhnxxf3foN3LsHv5SvieAsnQHeo6QzClI+SYpxAIK6W4sFZOULgTQ1olGZvL6uOSlp84dDCN6A+8rmN61hMsjXOG+fl6EUb4hmKZGkwCsrBUzD/is+kImtffvuRX329PbF+2FlKucKTgLZs6p1CE/xQgjzJUYEToDM0AZUwwEm3YaPjc8/xl8AEJ8lCUgpg1r0uY5xvQqqXdAWB+EcND35inmVX+x38I00khn3hWNd9qmDKxPebEIinYP2EXjYssDnoPvFFYWfPjR3gvn+U5fhP5/PUyMSHtqfIPmUQLBq8itiksS0AyRN7dnSf+Anf5fmSM6cspgb+3MNmOqTZ/bB28HE4tqQGTyYj8PowAJ7d7Ai+SFRf+Cx7bsmIIqCqOWpHNSc1ZvlmJepTsN/zkbl7Sb0QuZ3IQF0gL77ksik9gW/U3w42AqXOm/VbPIHPiFlyvxbQTcvlStUr857haWrWGTzIVs/co1Ggu6rOMmqV3MJloWPiN13QXSH9Qo8KQUL6mYSsExQ/C+cJfvVaFfFwYfclArSBfPfdd69vpRPVdsQMMBakYyUeK3x+8QSwy7EyNdjSNeFsxTBTMUJnjcO2qp4xQgMeDKK2Pr8xarbng/9ZKRjxcK0mSAt0l01jVrAKkYAZvBC9hq2UaE83l8P+1R96S+zeHRWlzBMnVl7EixKWSTGj5ZP5WZnsczTKsdy0F5m14C6W876tTzFR9wCoXFbO3chy0oUZwDlPlAF2K/ESWeliFop79Z7BqC12YkuYKr1aW3vvoPDkg9M3XCxu8PpPMSFXDTBAvVo9mEBorv+j3hGVNLubqVNp61xSLnSy06cjmH/jwkibyF8hIsp+HnsHGnHOGRBBFTFnFsvouOEtLM7j9D0rwMBSbPbrai+7TlzbjmUc+Z5SzFQkb8b0zGZeBqP19nX4HZnVehqlzMpinjweW3kTg7+BS8tTfVWF3sBTLCweEWnQXtP0dKD3UQbe3W0F2IXBdlWzwel0rBfyHU9M15aOD23CAUer0M5i8Wo8xf4JTPJWzqL9xeb3gPbZjn84V/OwsivzZhfdyFlzqI1KW/tjkdpsHOStBi9DfSK1jQTaMdfC7LV9nB2Tx/q0i3oVQMVYQO59bOlDaMEP6IM1FCSgqKYY6gW9DlaOmaZGYnMG7FpT5PlRVf1BJ5WQnnYJ9mxNo+v0vlYh06F+Fl/PGrpVufS+H65sOs3diKME9pR7mCqnh+DlFSGK7YMS/dtiax0DwFzZEvjsSa1zrHNvh9DGW74eucMJZDvzVutTNZ4m+8Q7pWf47eVNwlzdMEqEd7nOBczBfv6dB9DahxPDuwAlgEWVC7ljZrhTgU5uQDP7oIokD9bO+q/JHHYrPcwxcRjx8LzbG6ZB3S163v55ezr2/DQ1/6Zry0cHtuEAo9XoZzF4tR5i/wSmeStnUX7i83vAe2zHP5wr+dhZFfmzC+7kLLnURqUt/bHI7TYOclaDF6G+kVrGgm0Y6+F2Wr7ODsnj/VpFvQqgYqwgdz62dKG0YIf0QZqKElBUUwx1At6HK0dM0yM5f9oZxlKeeXaP0cubU+0qSg3VrWU69b6e3SdONTeLbEG7AlISpk09oMstraTKh5Rg8X0KcfRpZVUmNO1WxjR79r1y4zr4lOXOnoToVuwLND+yOFbVY8GDgOkz+GZX3jAjnDX1g0XsFezv7TwuYbQx+dgNGavyXp554dDDvIsh2xZ7l4J+u8lN1s1sKmvDqp+k6l3UGyrp2RzAevuBAGMkbfuvoeP1JAEcoDRuWe465wWym4tLCqdccU0HwPMFcxpk3qOyj548jx30p7lT7Yzg/w/PJvXIxZMGsYBgmPzspUX9GOLJF5sQ0ionZBx/IILrdA3JSMWHxt+Hsgsk31YZw0u3v712KnDUurZsD/JdjsnLrGMtWhF+YEX/ts2BfwaFboZeqUfAdSToTIQhvO36YqPsqiVm99SLu+38uqAm+YVZxOWeWDnXCgLBloYbL4qEyRQFTnblr6vwk4J4jBWHyAhpiTKBolVUCNPqXNzzmKWp39fPrwuSGgf2LVekDIoK71DllEhPnv3T2f0ZV/Xaq/zXj3Rayi1AagWnv0NguK+oP8fOzZiGkVE7IOP5BBdXCsvAnk/JLHK7Z4RUzDY66Y4BBfO5+O2RtDZg/6NJ9n110WDV4i8G9RwstmwL+DQrdDL1Sj4DqSdCZCEN52/TFR9lUSs3vqRd32/l1QE3zCrOJyzywc64UBYMtDDZfFQmSKAqc7ctfV+EnBPEYKGYo2Yj4qaPtoWgWZw9apODLFJ2HQZ1W73GRTCBsAwHDmMolE+PphzD4oMRcToG7QbnfUJ+XIhWceKXcV5v2cAtXVsjo0zZZysuuWhC5WlTRJPYPRIgJuvm0lSAF/A6E/QF3dsUfmf3T5EFHEAp4kltfDWEBqAH5ZEEtWy0GboFMVz2qCV0nFmwobF9emDgxI3TYG0uvIBsgPvrNrSNtXNkmL3v1RG0AqhSnEoUtUlAetdtzzmjsy8Zkf6UCUyk8Yzy+PQ3oEh2WojUvk30KmOfUweNEfFdw7P65H4hqXhYiXaKjnc+Yiqe5Y4QGcsDnEAZpG/dao3Z8AJlmP6p43FwW+pPzZihl2xrJeukhbJbHiMHYE1J3BNNkRePeVM7J4gn6RgV1IBDNKFH80iQpGVjtbF5TnE+7XrAzj8I8V+dLbvE2KjkyV2sapq6iwkXxnBszvqE/LkQrOPFLuK837OAWrq2R0aZss5WXXLQhcrSpoknsHokQE3XzaSpAC/gdCfoC7u2KPzP7p8iCjiAU8SS2vhrCA1AD8siCWrZaHIWCUL1tvekMkTfKfUH3QFHGpeCkRD4icke987MHFndObLYa4eu3yWy+y7EL9642/9WI8oGO4cHQ62KamiXKiqRKv10E3yXchwZEcv658UHBXaQM01ZzAbkR5IVwYGhb7NIvKBwxJMGM0+yufdgPD+gc50GOtkO3TUrM0P3jMK+/tC1krUDl4FnBCg+hlaFNsz4AdQ25MjDSYDdFanR520TrLIoxOMZgvnL+oH6wDZCGXrMgZptET2QWxzfgoaGNC8s9tikuHZJ4npp690WVJqyijxYJRQlGhiq/GZdvGMhAGGiMcnxABFfeqoAmfEOtlZmUAbeCf+el5UK5Qzxd837sasVJi+0yutwjZFRjLEYgwYhj9CPh6mUB4YpQwcpWXiro7bEN72dGjrCkq1bCgNhLxonFrH0nPr8DKhXbiLfj5I4o7tqPKTI3eecuA5U53M+HhYmCQrFpYzJNgKR6ax0NXWO4vALQmsDWX7QprwWt+3GuE3vSY+D2Mt4IFEMjYqDe3w3Dv2prBCmgSfD3o/1EDckU2JRyGv9+qDR4trP9BAwgdPa688T7ihphb/9wWtB4rAiX7/hUGhSQvqZraooQX5SbvWFDLYBA9vMsR7DyfdGgnbW8hcqc1Q0n3JafT21BA6Pzj2ESCOjMhGKYohX25zjn40Zc6hQgvccwRXsboVNcdweFvySOaJKGUmb7tt068VVpgA/Qvag0l/nBISDhF/6aMy2fHyOd1yKGl1qfIItpnHXt4a3bspEsklX8m1iurSNSRs7K/1yOmjnOdQCQ85pfmy75pOwk9hM4/dHzLnPhMjAbSEuY6SJahb83JjmILskyM0JbMqK1GJuiVHapS7536WZUkOm6Zih5H4BgXpScxQvuMCjD9ypzuZ8PCxMEhWLSxx1ThH7U84o8KMO4vALQmsDWX7QprwWt+3GuE3vSY+D2Mt4IFEMjYqDe3w3Dv2prBCmgSfD3o/1EDckU2JRyGv9+qDR4trP9BAwgdPa688T7ihphb/9wWtB4rAiX7/hUGhSQvqZraooQX5SbvWFDLYBA9vMsR7DyfdGgnbW8hcqc1Q0n3JafT21BA6Pzj2ESCOjMhGKYohRxwyBzGXIzsOYgZZrv7Vgeik5e2qKHSKHDBrpjxWH4JmTHg/m134T9HXlLG3uFoHLF21w/VVldtFHlG+VbQxydGvarZD3mYPRySlug5Ns8NmAanzPh7tMTTZKeLO+xJ+vFm664mEqzK4Lv2wCzKryDRqKi/ytWzvjfbdkww4Z5sKo92SzQyK1GIGxly2CM2ZLSVP+LhSqQ8CVOTcoFu1TEb3pyOT2Q5UHvu6ebUIrtESr44856cHcjWPRW0vpHBaLpwf1W/uaKSFLPDuxRPuzqIsUcJnsNIe7wlg5c3YC4BXp+Jy6je8nNaNKfFmv6X3C2RvxHt84D2Xdq3AmJjhQyLh6KyQfSgsiozGHgcAYM9VmRoA8PXavPSPlrWvrYzXY5f8xx7r3tRq2M+qYkHCRB1m2rzqK7dWEpSJGBs8CEqkeGwo7UVmia0rG5j0jQnxEDYFq/GH77x6n4nPjzqLK87Jhj0sFEANK9z0ynFiYO/4eurbQDn/ylL5e09/JwQayLtwkjbaIgOOQBnxECWviDYBsKmXmu1VW3qyvUpAArdIV2ENr42WMuVYZdTdftqSPXYI4/8DVe+Dm4ven6QHayfzm0UIQx6qQUp9JjjRcpMQvVwDUKUaNixaPKNkejumuMN+BUW2OlJQ/T4wrCdvzUHKh9PYO5A/YYzMmKrRq1Zyoa7ebGhovOvNRaw9mhXjz4ssYQq4FGWh8udPzQD4xSGYc6ieAVEkIVRH7KPAn3jdoimYijCLgZVfgzdPi+RzoRBUCj4TaqV3BtYbeihQ12xyHg+0pFMcmx7N8tdnaaQrCwRY0dezrTpExxgiyYlPyGKLRGrowfrbjIb62qnU+aEHi3b13ocNJ3apigPBfcANTcQ41UfgnxusCiylhTXN8vwlbYNddZGv8y20Ah8y9AdtrG5dS4fdEwl/s6Hw1jMzmCeiJpMY3SyAHXp9G1CkzUB2KaFumOsLDMvfvyQ4rddUDcWbCcNA6PmTJt6ObmPPpxZqTMcHhfd+xl1LhB5dnCZvvakM/GLzNJcbWDyeMtjPnIRoBOQgRKc69I4z1y6lGtXlGy832pTM3D/UsrVZjBXHSeaqoUBmP5gR8KvViyZMgndEHBwrFqNlmajeynimtiFOd+evyg08QXxrC5+wxcDGEj7cp4w7Z3CCDe6ahoh2qFza+XxmkBT+5JEoehdS5cqV/GqIiNaOL68WYFN9C96VIYjBDFWokYnI8P5DGipg2RjSNSx6o8e5BUhnxD3WhqmQhCAwXssT4JkJRH4nkYjCemqEaIKwnM88teagVqrbTidQMjTOi+Z53IC32Y7iEwbPQtROIqMsC0S26ysr1HmuQ1ZRPWYVnkjp56xAxG8lNO3HuBwDA04+I0btqgFY+V3u+LvbdDb8hG9lvv4uFIauBJzGTiL+Y4gy6OyFpB0J7abK6c0v5uTf2R+2p1FZBtp7xlcRUkh0n3UFfrFR0xd+1rMpT3cWLyRPXB8JIiYMq6K98Ut96hQvkYj7ODBO6UX1hNO76bDOJkf0yP+1z+PJMFnr6jMgfRkLQGHVG8o5+5jdP8+JbbGMTHQS9B3OzsRp534ZlXpVDs0F1CF0jEJrWo86yxgcYB3KeVD0Jm/57M+lSG2+NYXPutnY/JLNLHlzYi8cAndWarCJE8fRddfxMgrTfJkgbl+igG1caoiI1o4vrxZgU30L3pUhiMEMVaiRicjw/kMaKmDZGNI1LHqjx7kFVAvdu0g2EcXnTYSMpTZ/MwMsLJwX5Y4NgFtcO+zhXZsziEH3HJTxTxCDzMI8kNcMvP0BT26XHruS+7wicAK/NnG9FY3LHANkccYh4XLpMfezIg+uixY3jvWOKJitibPbJjAfdlsDiTkw7AhTDAy5QRw/3UjHPMDs/XXw2O+Z5C5EzmsOl7G4YISErqW8dtIfbXBXlmvFC8u+ZgcpUaKMbgVSqjo0VUt4ucy8+AF4deZa+sWMW1aFEIoeyYVUJBt7g5ltWUj99CWxrfAVPydMgUDK4mdggO701pc6XkJcj8xMwOkhDOksTTfUhSMvAhiLjAMqdrtirkka+L6vC63DYHh4JTzAW5jCpwUgaxSN6zzMLZztz5aSRK1i3LrrHpKvPr0GkwwSFQu2UgnIS4IRaMp9siZl6XRoTAYeprklPOgQ/4XQOv3Lf6hrzfVn7VfoI7QEq+ACnsZ4IuAuKQdrYkjmhZOR7SQeeDfygFJIvN31F8sNlYBYVKjgjCBoQIUyVrYfL3EUtQbIrS1oS0qzCzzY/CpIQO/k6Rcro8OSjFaiWOXZwwys7gx4UVHVsXE6tTEKyk4lfCqK337gAA1PHBPR3pj/FHfZ8Y6nU1ZYMjI4N0Keq+htnxQQEqXsgiS3ZVuhBAOJEH8uatVZudBdNMqAWvWFEAHlkR/3HZC2PQBzJy1mWfk/IO9KlhFWvSLEK+tfPiRd4++L3Uhu2X97q4AJ5nb3P+tRCnz8tk5m9FC4UI55seP4S0kY6lKwWxfYW5tkjj5rFaO8JVrnORoAeWhV9tzygTigwHAlY2XjSbtiATrOblTHS+Af9bdZrs3D2/1JCVvzh4TsWvwUqJ2J5SrLen9v6PS+g15zT42JcCkQBiYpQUBfVXYVdoRLmjR077egsmgT4EOEDUIUcTwAAAAIPC1H2McCIBMBcWCMLGQKhvwHL0AAnfSmRCuqebtBVFMnQp0s7g57yUPkM4ABQc0soAIfVbOAC6o2tjeeFeGNasgMNAU+xeS7ryWJNZ79zoy9+8t/i8A1H4CGNB+O1YIRsolJBJLVLSjOqAnEQ9Hss91dCHFRtwAAAAA+OJQbZ4Yqf023cugkGuo3P1exSyMtuWOnMA9AnZqaZZg94J+bo/zoeABun1yntxWMPpkVsN4/RATVi53KSDru/4waa0mwS+PRk0M3SE8FRkTYSTQ0oQqbo2j4uz6Fw6u6HxPUD0H1gAvzEFzjiKcT6a6G7l/n35GCLUgE10VYAf/7sktdxMS7fImkDOPz6vkAPXVAKm1sj30Xwe+acq74l1/I3oQzKT9g21dPLwAHxDfzZjEIe8lE99/cAWRJOKZqt0izlm3mzNrn76FeQkQ/5CGdRX4M3kcLPLz+cLGmAxsezFqbL0EXGW2jCuB5xMA1FaQtDAHc7dq11Hy58OGqvX4yYV/8OezHwahVtjHKp3YZJ1FBHXpCkB+9gr9ACm+YzmvGhQjpe/Umh9Xz7CM+WKHdOdR6AADexRH33ZmtcjA4d+OIAiqlkJw2lKSdikV6PEn7gx23mPj6miKNSZmXwCOJbxGXttr4qU8mbUujDJLXzo1McIw2PCdGN5yk9J4OxauytljMMCCkhPvqPlgEhG42FC3J1GvjPvY6dQfFjarmBlYgZrp1U+stUjHVNG9sr0uLG0VXT5WyP9HS6ivy92aa9/qEp2gAc4MvyBYteb7n24AyxbCSvOz4WdDJt39Buu6MKMWQ4lzL8bfUJz8fdz8LInjZ5X4KVrHEGi2T8vXngAHigBhwlmzKMGdhr5VJfN4igMIWlke1/Tuqwej748FxEtIGUZohL9c2eXklre8LYrf1XsC1XXjWw1JAzfMj13aMfkIACksdKA1Y5F3q/fw6AQ8djbzzBVzQfliqAZkan0CsUGCl+H7cYMWCguFzD1/v3OHxhgfhnagjusYdFpah/qPQ/TEX7EBz6I0OYkpwAULvtU+1c4m1XMd5Cr4HqpDZvxsHS9fumrEyn/D1Vi+2nqDD/3ZW+/QTnmtJJ5ZrevSMwlRhOtYRpTPeK3rACBd/eRbTSC6ocWvWjm2xjUbII6/m/jrqZyJnexrHVX7vtsDYHB2pc3sBMcMFa5Sk26oJVz4orvVWMe/FX8NEviN3uCNnL1wKjLVvGW1Au67A5U125gZtqbq2rQuDjt91wp1PJz83wngSXQvSyh6VDGAugr618+JD+ukVeHpN0OyMlMMc+mz9md1PWMJg7CwHo9ykUPCeYcSQq+8kAmHcNYXudmrccAyvRkaxW4N30mIETTcWG8M2QimvAFP1R0nZnhT4z+3ItP5DCA34RJBi41bDx+LwUEbD45w470ebVP6vtmrq1IBURIdq8idxdSVyU+M7ytUxRqXDJZMoGMzV3Dl8TRn8qYJY5c0cIsYt/tOUU/vUeqVcH5q88iZug8OMY6NfRQ3IoDINMvJRFyh4HCIV4n0nOyGS3pAEisdgQ/s1vAYMgfxx3WGgn4uNAqw9byjYaELYp+egQrc/5u+PpUOgj9OwSB4a1MfTSZnxrvG6Y3c6ukyl+Fnxq87bQMJMcrTQoMDAX5TDEPRPsZPUWtzONBp4YcJHJ/SqjRQX154mPI9vR79VsVwXYiXlMpMGZRUvAzwRa7ypuyvq6jh+d2F7ZtRGGC0g3TbsFhfrc6b+rdfGpmp3eCRM/Kj2AkzqLYY0VeLXL9eeV/N2rOczvlD5JUqfH2tcPulJRZlxEJmA3ZEfwr4w+5SzEfE1nVxvSFymkCrmvQuf0ADIwAkmNtMstKgiEfr5UL4TCaU4FfOSxIA+NYlHl1hofpy3a4o50O8cM86W99Gzrfp1x0TZmMs5FAb3Kl1Nqd2Sw9yp9TtdEHMT9m3dVwmYmvwP5hKpP6hgu3s6lToZYvcjB8A0GDHYR4DUaJ8BJS5/wtROmUkVeANvHuvpso/GfuTVjcdldmBg5jmmsJNYgMbPNnuoQULhXz7NpE/mjmjtOQvNkK1gp+PkeMx0Ee+L84GluYnK37wzuajVs2gYnsxTJz77wiaKVKL2yvGHVPeNmhKdb9B5OM/HkSqK773WXmNaY/HrIKuYHQhBxReEL0yM9049toPWJubz7Kp+arlFyPebQFOWoOMkkyHTkCdHSVdCQgkdP/d3UewUC/a4edGXfA3cu5Km6MAxIaMRKdBWyxDclRln7Tqzb4h0Fi+PoPV/5jikWygXtayY7uHGNU0CZ22ciKaBlOTnq0EyCP8OllkYg7aQj+zAE/v98eH6KXd8D38kvtMlDDfm7uEvEtQJmdlV+G7Z5cBOMPKCqkGuYkG/wxp7JvzC9OHooFvxf2EicoNbTOxvr34SpBBdR146tjpeAbP09cNvpvqbrfIlLOgamfIH7jItzd930vhwz0qH/fxCICEDlMy/B8ojshTT/t/02qyo7H5hYcoCqonw8dLychsP8Ul2zpsu1GzD4NTWEWTwhJoNOj2v3SW3R81UrsdP61kFfYWu+vrdhYYAkDtD0PP+2IsX5ZS4TrnVa3GDwKnIheLAnCxfihBzJIqSiPgtt2gYxeiwgqzKuWVqQwSVDw2FMqLOva25+g9kWlPkOWUJs9JL9yT6lui9OyoEd7y+mRFTJFfiSfX5CRBadCTgLV1Dw+GwyqiM3li4X9uXigExdNjU//+SdKuxia5WEKJjIK8poBPNOSPhD8kqzvj+98hFGwDc3svyEMy+xjUbrQdozV3ZrTwkQMUd5KIhFPZ3nKO60TItHq2E1bUV9jMzj/LkjIUm2uzNfrF7ORZPUWb787SaJZqWfa2Pdx4OjIEH68b5dE4sY3368nD0vgo+KCFQ8xmruyCn7nMjn2Pe+CCg0TjxsTYMAWWUcXrOhkzZktCQVTIMqq6QKkrYGmQTAK8lebKVmrE//c9nM0k7GbIqB6taKKCiVIeKQOgL5RRAUTDZBICq7ak7srd27/EJdHE3OPMrfT5ScivQmraDkVxfCYdD0yr1CKy15ZAPtzh4p/RU0U9vOd9R+CuFONoycNyWguA+wXfceUu2ka76w7kl015vU22doEVkmMQKnjCJAX0QO1v99qcV0ZZFDyuW7nuxdremSvnD5izE+vP04IRSG5XStHl6s+9QG4m2Z6a6AwI7orZovuOm0cbg+FhRao+zwzeUrTG68xhn9WV13UQGqqs6eVhukLKyZjULzOXJnUfJkqYm9aXLFFEskPuAIZPb1txs9hIBn7sAmd09zF3VbJ756P8v2D5kb/BIM1YR9kMzcxdyFq5sogDPnrrnXlWnf+TpXZs/RMC1cnZHTjJxAj0brwkoQzmPbNW2O8V88cmvMFY2+QL7pjfwC4vqRzTT9w2bcA1DaKUeUut0AkpGWdflshAAl86FRmBW8i1Cl5QbAhW9bHAn5o8y7SCBgzHoMQqoY2FhT3tcaUmpNzginfNyHmSy1MSTHYenyNaCu23o0VYHlEVc283oR/blIqBZGnduIRePAZH8XXPBzLIY/OLUHmRJORe0EkWstdUy2/2JjA/QebvBpXhKEmIuBq/JNqRTZTejiQb8W44PcKxMXkBDx7ijKM7QEsYM8JijsixBGc9P/LBaK7SPqLwg2DiPsojJAMDU1LhHbE6c89jqsS7kcglHCwv7AHwNREyiIC5AQHLWjzAbICJ/GdwJFEluqyOaoCcdPPIRLVFNqDZ1aFAuu6d+fk9bMJfzNK25ogxMysGp4yIzNulgkEmG07Gg6kuarqZYM4ICd5bhlDKZ11FOOswx2egrzMIhBMnIqnigCvY+UiVsRHkneXSvZwHt+PISIT0XyEthJn98Fyf+Zn2X5ZA4UXbNW3gWjBbVeMOw3wTtwy0RA7+o2Xz2nnwKKb9Vtb+SCJKUjLWCgArkUv315riDppW57LwYzK+UBPaPgC60PhvexB5JAkvqRfXigUEJyGtsLfM4r8KVZV+ilgtrkL3dp7qfKBs1xUwSUIz4Gnfqd5pcICuj9p4CwM4dmF2Q0/knghP67DLBMBaCLvFCgHrujWc20eKR+6ittrgDTpNnx74LlDrx7IZ+KNUWCK0Lq0p5TNq4uGg+1E2S9JJljYxmL6ndYEwTJfUHLcT3t1tgXS2SF6DP2ogOpTFQXjaO2HTyg2T5tAAUmot8IRiAUtizF5qZ643hGJHC6OelNQbpzI/OIf8iZRcHAMIgWEgqm3QlXpLgK4KQVVTBeAGByHT7kakcZkZ9ox+DDozoiKOhF7+1J10wPdpLJ0+LUhvfIWagNoXKJoBtI1pJR7Z2EWwGvQIv2fWIA/7fvM9hlhQxLs7pp7cUEgtYMrXPE83po5z665oRCnkHVRIdvQ8wk/unMBq6aX6o/oClMBYY7pAMCgop9pvp1zdscIj3v9NiA9axA4tds7LuoQuA8O4UJQ1kTzHPXO9CesXVbHzvmGf5nCG+yd1JGTspwuBqKk8P4zKVQHtKD/XOWoZqRJg8J+kHaO4p4IguF96JAN6UxuuzZMsuhmU2JcdE23r+m9RKS5Yns0hPkw4eHNnjTv5qS5Kf2cPXPODIN8i7UJYxPhLEbyYhCJvbZgv7sUmLEoH0vnwn3jV/kugoBvi+WOAULqWBO5nSmwglw6WDxwYHOcJbSMwAGTUOOw5XMg3tgta5RCuQi9AAZzgZ567ptj5cjnUSXlEqD7RNzSpQ3QbWOfAhvUelL8Uuc690LNTurTesOqvpFsGzfgKgvV5W5THSVrLk0LOCSN9Pa8eAiSA3w7FWGNrBPfVIP0E7U+hUfpIUjYCAAS21PnoGUjcNAhl9qzJViXt+ga2VRFOra9PuGxJ0av77Rjk1rkucQXdtWcRuhGgHealo+duH5qfYo9NXPdrmKBou2NALy6VFAZH3/NNtTaPWJfKJeya8jLj9UJ0iAEuC8zW6ybwCraFSjb7Uph/J5lbAVpu1fGXpBugC4GEfocKOScUK5IF2gRMBRNisE1ODKCvjO5nDOJT6nnVBFM1KQftyAk80cAjKgCDNRfjIaZ4Edw5heha3kv4vCOzm0uv+/e4PGmAgXhUmDc1IssR4V44Z8r5vrnXd5Q39uQDGbAUBpkioUxHIYJmAAABLrO1zByj1CWnwudds+FJjM/0QoZ6OrT9AQSYcuoyInfui4RIut8plFOR9pd3Y5HXU2nXvwkEC/SR0Gzf22AAAELq2gMyASseCXRKdvkr931Yq3MbAKFWb3fBniNZ+EmVoTc1cNXGvQ89N48bMOJU8SUoFXBc3NQdQXoG2HoAAAEZ8xd8TDxVW+C+UtFWZWPb9sCOO12ZXd7LFxdwae9nQUV+5VtXefYkvxRqsxuCnfHRge05iEa67LhAAAaJUzr7lgAADGNFcCRQt3dO5u2MIiLDtkJQxm67ULe0XNy1eGbO+cr10Jff46REII5YhNlcy/CecX3AyFpBZ0KtEvGfI12ctIXgbUJ4mFRY8ESEXW6lD0kuDqgZ44+O8QUbrkAAAAAcDu2iW7fJfZP23KP9bsDmhLEmFJn9MECgkWi9hLgZocE2FsnYxEPpztrkHYAuS4F7/cgV+HzZ4zqJP0VJPPRgAACFCMnd97/i4LE3K3lIaYnuxB2hy9VaMlPNZ6CWY952I1tKodHEIXl3I5vDfGu9MERxupU74CP8UG951ybRcAFz5iLxhghtfT+ty65GVWnMz0ACdTaMGhuqGTg1lKKrgnNExWbdRH7z34iBlrPqZnnpEEQIgYTrj5B+71JAsuDV8yidwKfZcf6BjaewetgCbFe+7hlUVLqOEiBCrUy4fgLUtCv2vkda+I2LQVGTUhWB13QRffsAAAEPEDK9jf9HhQ+oEwiy5zUOTXYAAAABPz3/GvQ0QV7TzsxXf1rIq67gHvraxZgrp8sjra1i3rl+sJMlNF6OLaF8iSub3V2tGCqXktmgr6N0hGyLXzj+uTA96s/KMswbiadSrCqU9imFh2VtKnuB0JpD/Bq8GacGqelGIdoHL65JVtW6qKzJ4tK1xOQW+cUs15sSuyULwSfRU+Bk75YBJGAAABLeivc5uQtFfvJBC4FFjJm3Hn3mMQGmMuq8C6psoHPfMZp1WaKi6g+KSsO9JxHLb6bQn6WOSnkAHi9Aaq+0eqgb45Q6DdHAT6l9EVrOB8ERTatkfMsYKu3dSZNuBL8V+x1m3yV+ovYurZxY1SspD1HwGu14czQrGM21earx1CUQMcui+tPf1BMJLCML8aiLWDgkknVW8MaxBOYsS8TAJs37HuBai8CWy87tzjdfic50gllX3g96g1uZh8RW1we6Weh5EV7iv83Fd9PepYK2nXQyR4ujqAorPg7aPxabNH97nGgQCRVYxGrwWPAnE0aC+PzKMClGZYgWYrS+o6zR4HzH0tB/CaW7qDPs/8LOA+jYd52S95A6JbI31nTmk3l8FnLvcmgYiOXwkHI0+0dEVVx7PNUx7ROXDSdEdgzWiewy6lhzJxwlFTPPJD23pEnWO5TmEormFwXff7zOtGZVWwUIY3kGIAbtQY4qFa7pGHvgki2a10o/1vyWYHIecQUwk5u8xpsRhG6+CvGH3StyYnt0MrAoNuuBOHCh5uLawRsws0k/kI06b0rXYcRvyEIF9E8RJlfOceYCXflY65OTlE8Cu4gC1rZlHVxD9fFFcCXTZAo7sDf1jovHVYuAIGh/J6gzRoV1QtbU2k5Buyfvfmb0FLN+CC1WgNGp4TDQ5gWduTjfG7j63aDPbTkonUsJtOqXU+e65d1bndmZvUtpFumSyZdx2qi+XnNV+XZqfyvGPxPqat75fc9RXsvppJBDzBucfccZNKrxfpne6xPubbjR8EoMgqQ2r2nf2Bm+9y2G3vEYlKX675/bJPy1j+sXronPeIWbJB+aUAs0xkyxGeBNe2WM0p96uynra3nTEQCdSD9aY2A1KVTZZqwyfQgnjG2exQ6qHOPumT9+EBuIL2vrIeRAOQLbawR1mJU2urjBVXCUUgiRVYjDzg1Qrte4NCvom86l7Ds2Y12AmGvYJp4M1VUgAs53O8EP4GYiIGtWjFaj1yZyGhtpzWN2lGk5mkg5ecFhylFLuvcv2b5HwoRYH6VsFqgDpI6nd1ZV8xQx6Ay6yf/jdIEVYrAwC/SgkjsAiZNvai39fPtIOGUyKzyZM/HpE4tL26H7S0xbvgwFHYLwJve5olUpxhaCfug1KvCB3yyAekak2HSDrXKF3YEE4Ho7Butgym2Xw1gLTlKah/wqSO6vemN+z0MtY0B8dK/hLursiUCdtpVUyTLnMl1Ml5c+PiY2BjMqbaXIjruXvBeWwRTXcRui8A/OJEHO0n9CgQABA5hRtlz9oBufqb3cEQst0Yyn/foWapG63wBnZWBEvADW+pQGL+5s4IquYrYLm6BebFcYwpgSHoZCaQYWDA/daX7XlsW6wmON4+c3jHyLyuNy1f50glWbW+7N0+ppczPSgKcKPcOA9EzCW+fIt6xHGPO7/mXACxNhcg6JkLL9BzyjUtpkdIBjVAyvoEeGEFuNv/NrSHswVwGx9qjMpe4pSTvojTrQ3ePhKBkVmyP61FHg+4okrNlfuB0vOkrIJXCcbiMZ4DPvf7tG8tZsbKjv2oGWtQjlMNN/WjCYuD1NYR1hrjixv8x8w+tF5YFhMU3wLjnQmnKB7O5oPTJOPU1FuTv13Z1VOnyBt16Ghw20klQHyFML6FHBYBT2p5gpQtQLMgBSckAAHhIUsd4EWy0yYROA1Ch8FKWS3XCHJCk8MFHJC1nC2EBc3OMJRMosrxM8mKcynunm6SnsfspQfrWIVAgzp1cqY56hSuY3pZunkHDH50WjWoWZv1YniNoYx5xLzV5QkPVpnbuqnNYztbOV2KQyylGHCQPguydDomJsQlNXFZ76AuIYY/XrTA+CqsQCHkO/9I4Vy3WUNe4FBmikS3yBnC1eoSZLAXScWwQ4SV3AFHTCbN3Bv8aDw7Xt39lSKlL7vMGfyVCFzipkX9vqVYTnlNRg3vJYZdEN/YTSoHRF82D1wZXj03dCvpo1GMqd8MLUWkpqpmfaGevvrwIr9Kl3+YJ4YCdaKlO367Kle3QW7Ob3WRqCQVByWJ5SA480TFLXJlsgFfiEaaC8e94nN1dBvDnWLI7WYRFOzlyM0LRJRZfMBy0TDbjFVOx6S9F8zEpRiFE6PndeGRLH3wUEAkC9QyLK0Qe15OOWUbimDcHTx4fYShB1ztk/g/3MkduIiSjxVF8TRMIhuqXBezEMxl4pv3IFD9P24a88jHXweeLe1bNGzjxaSqpTbN7O+QGgZ/mo3O9+AxTdXTmVy2BpbdYr1cckQj2r1fcWC/CcK6g8EpTKQzQRinhS3UDv8H/gPhK3tzf07MIclI7DWF28NiezVSoOHaPs1IAAAAPYcm/c0LS8eUzLx6Xji3bcAFo1xxsix7jkTO2pQev5tL2rj5jsCFgPnEMtwotnw25LjsAAABRCgWjLhv551Gm1b8GFE8gpfIw5OwJLxrYioRc9Vcb0WAAAGxDVLiEP3jmHEuPAbNkDhEqRJ0SxnwEAAA=;" vertex="1" parent="1">
          <mxGeometry x="10" y="49" width="907.08" height="841" as="geometry" />
        </mxCell>
        <mxCell id="nwJMVLTg8DARAomQ7jTs-2" value="" style="shape=image;verticalLabelPosition=bottom;labelBackgroundColor=default;verticalAlign=top;aspect=fixed;imageAspect=0;image=data:image/png,iVBORw0KGgoAAAANSUhEUgAAA1IAAAFqCAYAAAAQkGvuAAAABGdBTUEAALGPC/xhBQAAACBjSFJNAAB6JgAAgIQAAPoAAACA6AAAdTAAAOpgAAA6mAAAF3CculE8AAAABmJLR0QA/wD/AP+gvaeTAAAACXBIWXMAACE4AAAhOAFFljFgAAAAB3RJTUUH5wYOFwUFvH62NgAAABBjYU52AAAGpAAACJgAAAHbAAAE+Piw6nsAAHvjSURBVHja7d13dBTl4v/x92zJpvcGBEIIHQISepEOShNBECxX7Nferliwt3st1673a68oKthAVBREBOkdJHRCJ5DeNtlkd35/cLI/I3UhkYR8Xud4juzOPDt5ZieZzzzNME3TRERERERERE6aRVUgIiIiIiLiGwUpERERERERHylIiYiIiIiI+EhBSkRERERExEcKUiIiIiIiIj5SkBIREREREfGRgpSIiIiIiIiPFKRERERERER8pCAlIiIiIiLiIwUpERERERERHylIiYiIiIiI+EhBSkRERERExEcKUiIiIiIiIj5SkBIREREREfGRgpSIiIiIiIiPFKRERERERER8pCAlIiIiIiLiIwUpERERERERHylIiYiIiIiI+EhBSkRERERExEcKUiIiIiIiIj5SkBIREREREfGRgpSIiIiIiIiPFKRERERERER8ZFMViIiIiNQMbreb3NxciouLa+XxG4ZBQEAAUVFROply1lOQEhGpAm63m5ycnFp781PbmKZJaGgoYWFhWCzqXCFnj8zMTO655x6mTZuGn58fhmHUquN3u92MHj2at99+G5tNt5lydtM3XESkCuTm5vLiiy/y008/4Xa7VSF/g8suu4zrrruO0NBQVYacNUzTpKSkhNDQUM477zzCwsJqzbG7XC6mTJmCy+XSiZQ6QUFKRKQKlJWVsXXrVrZu3co555xDUFCQKqWalJaWsm7dOnbs2KHQKmclj8dDkyZNePjhh2nSpEmtOe6ioiJmzJihEyh1hoKUiEgVcbvdtGnThg8//JBGjRqpQqpJdnY2119/PeXl5aoMOWuZpolpmrXqmD0ej06c1CnqWC4iUkUMw8Dj8VBWVqbKqEYulwvTNGvd2BERETm7KEiJiIiIiIj4SEFKRERERETERwpSIiIiIiIiPlKQEhERERER8ZGClIiIiIiIiI8UpERERERERHykICUiIiIiIuIjBSkREREREREfKUiJiIiIiIj4SEFKRERERETERwpSIiIiIiIiPlKQEhERERER8ZGClIiIiIiIiI8UpERERERERHxkUxWIiNQeLpeLVatWsWbNGg4ePEh0dDSNGzcmNTWV2NhYvvvuO/r160dAQAAHDx4kJycHi6XyMzPTNL3/Wa1WWrRocdTPKikp4cCBAzidzqOWARAbG0tkZCQAeXl57NmzB6vVimEY3s9ISkrC399fJ0/kJJmmicViwWY78jbt0KFD5ObmEhUV5b32Kq7X7du3ExcXR1RU1DHL3r17N0VFRURHRxMdHX1Sx7N7925cLhfx8fEEBQVVOpbMzEySk5Px8/PTiZM6R0FKRKSW2LFjB08//TTp6en07NmTqKgoXC4XkydP5plnnqFp06YsX76cmTNn4ufnx4YNG/j555+ZP38+paWl3nKio6Pp0KEDDoeDefPm4efnR+vWrRkxYgT9+vXzbpefn8/ixYv54Ycf2LhxIx6PBwDDMEhKSqJz58707duXiIgIDMNgz549fPnll6xfv54dO3YQGhpKly5duPPOOxWkRHxgs9lIS0vj2muv9QaU22+/nYMHD/Lhhx+Sl5dHaGgo48aN49JLL+WHH37g/fffJyMjg+DgYC6//HIuvfRSAgMDvWVu3bqVl156iezsbJo1a8a2bdto164d1113HREREaxbt47333+fTZs2AeDn58czzzzDRx99xNy5cykvLycxMZGbbrqJdu3a8fbbbzNz5kyKi4upX78+99xzD23bttXJk7p1raoKRERqvoMHD3LHHXewcuVKbr75Zq6++moCAwMpKyujb9++vPPOO3z22Wfk5+fj8Xiw2Wx06NCBiIgI9uzZw+TJk71ljR8/njFjxhAeHk79+vWZOHEi8+bNY+bMmYwZM4ZJkyYRFBREeHg4/fr1o6CggF9++YU9e/YAYLVaue222+jVqxeRkZEYhgFA48aN+cc//sGcOXN4+OGHOe+885gwYQLh4eE6gWfQ0qVL+eabb8jPzz+iZbGu8Hg8jBkzhp49e2K320+7rIoW2epQ0ZIbFhZGcXExs2fPBsDpdNK5c2fOOecc3n33XXJycti6dSs7d+7k0KFDtGzZkq1bt7JixQo2btxIbGwsF1xwAQBbtmzhzjvvZNGiRTz00EMMHTqUadOm8Z///IeioiLuu+8+GjVqRNeuXfn6669JT08HICwsjPj4eFq0aMH777/PsmXLOHToEF26dKGsrIwmTZowffp0VqxYwd69e/nkk0+8vw9E6gIFKRGRGq60tJRp06bxww8/0Lx5c84//3xiY2O970dERDBp0iT279/PTz/9hGmaGIZBREQEDofjiK57cXFxJCcnExYWRlxcHFOnTmXOnDls3ryZjz76iJSUFMaPH4+fnx9xcXH07duXTz75xBuk/Pz8OPfcc0lMTKxUblBQEElJSQwYMICPP/6YNm3a0KxZM53AM2zz5s1MnjyZvLy8o3YVO9u53W5cLhetW7emW7dupxWkcnJyePnll/niiy8wDKPKQ0NoaCijRo3CNE1CQ0NJSEjwvtehQwduvvlmQkND2blzJ9988w179+4lLS2NV155hYCAAEJCQnjsscfIyMhg/vz59O3bl5CQEN5++23mzp1LYGAgl156KbGxsXTp0oXc3FxmzJjB4MGD6dmzJ+eccw4xMTGkp6fj5+fH4MGDOe+88zhw4AArVqxg7dq1rFq1ioEDB3L99dfjdDrZtWsXc+fOZe3atSxdupSysjJddFJnKEiJiNRwpaWlzJs3j7KysmO2KMTHx3Prrbeydu3aSq9XhKq/vlbRTc/hcBAdHY3VasXj8ZCdnc2aNWsYP368d3u73X7EDbjVaj3m8dpsttN+6i9Vx+12k5+fz9NPP82IESPq3M///fff89hjj+FyuU67LNM0ycnJYdu2bbRp04b4+Pgqa50yTZPg4OBKY5D+LCUlhUaNGnm3q7iuQ0JCaNCgAQBJSUmVfm94PB4OHjzITz/9RHFxMUFBQbjdbgoKCigpKQFg+/btrF+/np49ex5xjffo0YOoqCiKi4sJCAjwvh4dHU1MTAymaVYap+V0Oqu1tU6kplGQkjrL7XZTXFyMx+NRV4RqYJomDodDY2OqQEXAAdi5cyeffvop8fHxREdHVwo43bt3p3Pnzj6HmJP5/vt6c6SbqZp3PUZHR1dq4agroqKijhv8feHv7098fDzx8fHcd999DB06tEqP1TAMsrKy+PXXX494r+JnqOj6V7G9YRh4PB4sFkulBy0V76WlpZGbmwtAQUEB//rXv7Db7WRmZhITEwMcbmk7morfL0f7zL/+v0hdpCAlddaOHTv48MMPycjIUGVUA9M0Oe+88xgzZowq4zQZhoGfnx+GYZCfn8/rr7/OunXr+Oc//0nXrl2JjY3FarVit9t56KGHKj0hPl6ZFSqeXMPhm85zzjlHlX6WXpNy+ioCi7+/P8HBwVVefkFBQZWWt2/fPm/rk7+/P5dccol33KLH48Hj8dC4cWOdWJFToCAldVZGRgZTpkwhLy+P+Ph4742knB7DMHA6nezZs4eQkBAFqSrg5+dH9+7dmTVrlrclddasWcyfP5/+/ftzzTXXkJqaSkJCwjGnMv8z0zS9rbFpaWmsWbOGgIAAEhISGDNmTJ3s/iVyNjJNkzZt2hAcHExGRgaGYRAWFkavXr0A1JokcpoUpKTOMk0Tl8vFBRdcwN13360BslXEYrGwbt067rrrLoXTKhIQEMBll13GTz/9xPz5873f36KiImbMmMEvv/zC4MGDue666+jbt693LMOxpKenM23aNHbv3s1XX31FZmYmvXr14rrrrmP06NGqcJEaoKpCTmxsLOHh4RiGQUlJCb/99hu9evXydgPMyMjA6XTSuHFjBSsRHylISZ3m8XiIi4ujVatWqowqVFJSgsPhqFM/s91ur9abkMTERF544QUeeeQRfv31V4qLi73vFRUV8fXXX7NixQoeeeQR/vGPfxx3nFRWVhZZWVmUlZURGxtLcXExpaWl/P7770RGRtK1a9cThjERqV5/HpdU8W84/LDqz2O+rFarNxT9+YFgxev16tVjxIgRrF+/HqfT6Z1RMzk5mZycHH7//XdatGjh7d53tM+02WzezzAMw/v5Ho8Ht9vt3d5msymMSZ2iICV1nsYNnJ11apomBw4cYOnSpdXeMmaaJoWFheTk5FTbTYTFYqFTp068+uqrfPLJJ8yaNYsVK1Z4xz4A7Nq1iyeffJLmzZvTvXv3Yw6w79KlCxMnTiQ4OJgVK1YwceJEfv31V+bOnct3333Hv/71L6677rrT+ln+ehNYlf58XHV1XSRfvzu6ua1dDMPgwIEDla7v2bNnM2jQIPbv38/atWu9sxBWTDseHBzMd999591+2bJlLF++nJ49e3L11VezefNmpk+fzubNm7nxxhtp2rQpwcHB9O3blz59+rBt2zY+++wzduzYARyege+rr77i6quvZt68eWzfvh2A7OxsFi1aRN++fdm6dSvr1q0DoLy8nDlz5lQ6ZpGznYKUiJyV3G43ixYt4u6776awsLDSU9PqULGGy8lM9OArj8dDXl4eERERNGnShAceeIBhw4Yxa9YsZs6cybJly7w3VTt37uTLL7+kY8eOx2xV8ng83ifXHTt25P7772fVqlXk5uayefNmXnvtNTp16kRqauopH3NkZCSBgYHVUtdOp5OSkhIKCwvZvXs3+fn5eiByDFarlUOHDlX791+qnsPh4IILLiAiIgI4vDhuxdIF48aNY9SoUcDhMZQVs8/26dOHzp07A4dbh/z8/ABo2LAhTz75JH369GHNmjUUFBQQHBxMv379GDBgAJGRkeTk5BAfH8+//vUv4HCYi46OBg5PsX777bdjGAamaRITE4PH48Fut3P99ddTXl4OHA7ts2bN0smTOkNBSkTOWi6Xi+zsbAYNGsSAAQOq9bOcTiczZsygtLS0yssuLCzktdde44EHHvDOGJaamkpKSgrnnXceX3/9NW+99RYHDx4EDj+JLisrO+nueV26dPHecAHs2bOHefPmnXKQKigoIDQ0lNDQ0Gqp602bNrFx40ZcLhd79+6tk4vMniyLxcKePXtwOp1qvatF3G43DRs25NZbb6Vhw4aV3qtfvz6dOnU66n7H66aelJTE9ddfT35+PqWlpTgcjkrXaLNmzY65gPbw4cMZPnz4Ea83a9aM/v37e//tcrl47bXXdAKlztBfHxE5KxmGQUBAAAEBAfTp04cbbrihWj+vorvLnj17qrxsp9PJl19+yRVXXEFiYqL3dbvdTmpqKsnJyXg8Hv73v/+Rl5eH1Wr1qSvXX7sAlpWVVZqC+WitPU6n85jlHTp0CJfLVa3j5CrWr7FarQpSx1ExnkYtdrVLxdpQVbGI8F9V1wMOOLyUgr5rUpfor4+InPUqup1UJ5fLVa03EFlZWcycOZObbrrpiPfCwsIYMWIEU6dOJS8vj6SkJJ9aH/563GFhYZWeTMfFxREWFub9t9vtZs2aNSQlJR01xGzduhXA2yWpqrVo0YLmzZsTGRnJPffc4+3yJEcyDINp06bx6KOPahZNEZEqpiAlIlLDGYZBXl4e7733Hr1796ZNmzZHtDjt3LmT4uJi/Pz86Nevn7er3tEmffjzv91uNz/99JN3gLjD4aBPnz4MGjTIu01gYCAjRoxg6dKl7N27F7fbzffff895551HSEhIpXJ3797Nr7/+Stu2bUlOTq6W+qhoaQwJCSExMbFSyJMjVSzYLCIiVUsdpkVEaok//viD+++/n7Vr11JSUkJpaSmlpaXk5eXxzTffkJuby1133cWIESOw2Wy4XC4OHTrEli1bKpWTnp7O3r17KSgo4Pfff+fZZ5/F5XIRERHB+PHj+c9//uMdZF5h9OjRjBgxgtDQUEzT5JtvvuHVV19lz549FBUVUVhYyKZNm/jPf/5DWVkZw4cPr7aufX8OgmplOTGPx6MWOxGRaqAWKRGRWqB+/fr07NmTDRs2cOONN9KrVy9CQkKwWq0sX76c9PR0Hn30Ua688koiIyNxOp1MnTqVqVOnsm7dOuLi4rxlrVmzhptuugmLxUJmZiZJSUncfffdDB48mHPOOadSK1OFsLAwnnvuOdq0acPnn3/Oxo0befnll/nggw9o3rw5xcXF5OfnM3jwYO68885qa40SERGpKRSkRERquJCQEJ599lkGDRpEaWkpaWlprF27lry8PBwOB9dffz2pqalERER4F+L19/dn/PjxjBkz5qitNhVdA03TxGq1eidtON7YquDgYP75z39y5ZVXsnz5ctavX09+fj4Oh4NmzZqRmppKTEwMfn5+WrdIRETOegpSIiI1XEBAAMOHD8disRAQEEC3bt3o2rUrpml6Z6/7a3AxDAM/P79K05pXBbvdjt1up0+fPvTu3dt7DKDFcUVEpG5RkBIRqQX+HFKOFpz+bjXhGERERM4kPT4UERERERHxkYKUiIiIiIiIjxSkRERERGoYwzBq3bhDjZOUukZjpERERERqmJKSEnbu3IlhGLVmHbCioiLcbrdOntQZClIiIiIiNYhhGGzevJl77rmHwMDAWhOk3G43ubm5Wihb6gwFKREREZEawt/fn169euF2u/F4PLUmRFUYOXIkXbt21ayeUicoSImIiIjUEKGhofzjH/9g9OjRtTaMBAQEYLVadTLlrKcgJSIiIlJDWCwWIiIiiIiIUGWI1PTrVVUgIiIiIiLiGwUpERERERERHylIiYiIiIiI+EhBSkRERERExEcKUiIiVcgwDE37W80slsN/umrbtNAiInJ20ax9In+TioUK3W43DoeDsLCwSu+XlpbicDhUUbVcWVkZWVlZhIWF6Ua/GhiGQWZmJiUlJQqsIiJyRilIiVSj8vJytmzZwpo1a1i9ejVOp5OQkBCcTicRERG0bduW6OhocnNzCQ0NJTU1lcWLF5OWlkZJSQkWiwWPx0NZWRmGYRAWFkZMTAyNGjWiadOmREVFAbBv3z6WLVvG7t27vTeYpmni7+9PbGwsF154IX5+fsDhQLdx40YWLFhAYWEhcPjJflRUFBdeeKGm3D1FFaFp27ZtPP3004SHhytIVQPDMCgqKmLNmjUkJiaqQkRE5IxRkBKpJkVFRXzyySd8/vnn5OTk0Lp1azp16kRkZCRZWVmsWbOGuXPnkpWVhWma/POf/6RDhw643W42b97Mp59+SnZ2NvXr1+fCCy/E6XRis9nIzs5m586dpKSkcNFFFzFo0CBM0/QGpMmTJ5OXl0dwcDC33347kZGRRxybx+PB6XQyefJkVq9ezcUXX8zAgQN1438aHA4Hbdu2Zc+ePezevZtdu3apUqqJYRgkJCTQokULbDb9GRMRkTNDf4FEqkFmZiZPPPEEX3zxBXFxcdx7770MGjSI6Oho7zbZ2dn8/vvvPPXUU6xbt44DBw4QEhLCeeedR8uWLUlPT+e7776jQ4cOTJo0yduStWPHDj7++GPeeecdFi1axL/+9S+uvfZaRo8eTZs2bVizZg0LFiygd+/e3Hnnnd5WqwpWq5WUlBRSUlIoLy/HYrFw++2306NHD5240xAaGsqVV17JiBEjVBl/A9M0iYuLIzAwUJUhIiJnhIKUSBUrKirivffe44033qBBgwY8/PDDXHjhhd4B8hUiIyMZMWIE4eHh3HnnneTm5nrf8/f3JyQkBDgcfMrKyggNDSU0NJS4uDjq16/P9u3b+fHHH3nvvffo3Lkz7du3x9/f3zvOKiYm5oQtTFFRUTRr1ozQ0FCduNNks9lITExUdzMREZE6QrP2iVQhj8fDihUrePHFF7FarVx44YUMGTLkiBD1Z507d2bMmDGVtjFN0xuCjhaGYmNjGTRoEAA7d+5k7dq1R+zn8XhOGKQ8Hg8Wi0WD9kVERER8pCAlUoWcTifTpk3jwIEDxMfHM3DgQAICAo67j8Ph4KKLLiI5OfmkP8cwDIKCgoDDk0e4XC5VvoiIiMjfSF37RKpQcXExM2fOBA63GnXs2PGE+xiGQXJyMldeeeVJf05JSQmbNm0CDncRrIndySomwCgtLT0jn+92u3G73fpSioiISLVQkBKpIqZpkp2dzcGDBwEIDAwkNjb2pPa1WCzeMVF/9dcFXktLS0lLS+Pbb7/FbrfTvXt3evbsWaPqwuVyUVpayqJFi3jsscfOSKAxDAObzaYwJSIiItVCQUqking8HjZv3uy9cf9rADpVhYWFbNu2jZKSEtxuN7Nnz+aTTz6hoKCAUaNG8eCDD56w++Dfrby8HJfLxebNm73Tu//dbDYbqampmtJdREREqoWClEgVqo5JG1asWMENN9yAzWbDMAxCQkJITEzk5ptvZtSoUQQHB9e4evD39ycoKIju3bszceJEysrK/vZjME2TDRs28Ntvv+mLKSIiIlVOQUqkihiGQVxcnPff5eXllJaWeqcjP1Vdu3blzjvvJD4+HsMwaNu2LVartUbXhcViwWq1Ur9+fTp37nxGjsHtdpOZmakZCUVERKRaKEiJVBGLxUKTJk2oX78+27ZtIy8vj+3bt9OqVavTKtff359WrVqd1IQSFovFO436yU5r/ucp00VE5MwyTZPi4mJKS0tr7YMgu91eI3tLiFQ1BSmRKuRwOBg0aBDbtm0jMzOTNWvWnHaQ8iXoREREeCetyM3Npby8/LjbG4ZBQEAAdrtdJ09EpAYoKCjg66+/ZunSpXg8nlp3/H5+fnTo0IErrrjiuGsoipwNFKREqpC/vz8jR45k6tSpHDx4kO+//55BgwYRFRV13P08Hg+HDh2q1DXwVISEhNCgQQOsVivr1q074dTj+/fvJzIykpiYGJ08EZEaoKioiBkzZjBz5kyaNWtW47ty/5nb7SYtLY3Ro0dz+eWXK0jJWU9BSqQqLyibjV69enHllVfy4osv8sMPP5CamspNN92En5/fUfdxu918/fXXFBUVMWHCBKDyjH++du3o1q0bX375Jbt27WLBggUkJCQc9Q/x9u3bWb16NYMGDSIiIkIn7zQVFxfz+++/s3XrVo3L+hu43W7at29P586dT3scokhNUvH7v0WLFjz++OOn/YDt71RcXMz48eOx2XR7KXWDvukiVSwoKIhbb70Vl8vFRx99xH//+1/279/P5ZdfTtu2bb032S6Xi4ULFzJjxgyCgoIYO3ast4zs7GwyMjIAfF7Q9rzzzmPJkiW88847PPnkk3g8Hi666CICAwOBwzegS5Ys4cMPPyQpKYnhw4frxr8KFBQU8MUXX/Dll1/idrs17qyaWSwWbrzxRtq2basgJWeloKAg2rVrR+PGjWvNMTudzmM+NBQ5GylIiVQxwzBITEzkoYceonfv3rz99tu8++67zJo1i4SEBJKTkykpKWHnzp00a9aMpk2bMmLECJo0aUJhYSHz5s3jo48+YunSpQAsWbKExx57jG7dunHppZcec+HeCtHR0dxzzz1YrVamTZvGAw88wEcffUSrVq2wWq1s27aN8vJyevToweWXX079+vV10qqAaZrk5uYSGxvLxIkTqVevniqlmuTk5PD666+Tm5urwCpnLdM0a92C4uXl5bompU5RkBKpJjExMYwaNYrOnTuzfft2tm3bRlFREUFBQXg8HsaNG0ejRo2oV68eQUFBwOExVqmpqdSvX58777wTwzAwTRN/f39CQ0NPeuHdhIQEHnjgAa666irWrFlDTk4OgYGBmKZJhw4daNeuHY0aNSIyMlInqgqZpkl0dDQDBw48qVkW5dRkZWXx9ddf64ZNRETOKAUpkWpktVpJTEwkMTGRnj174vF4vDd/RwtFNpuNevXqVUlrRnR0NNHR0bRu3brSU0KbzaZZ+qqJYRh4PJ4TzpYop6esrAzTNNUlVUREzigFKZG/yZnqN26z2TTwV0RERKSKaV5KERERERERHylIiYiIiIiI+EhBSkRERERExEcKUiIiIiIiIj5SkBIREREREfGRgpSIiIiIiIiPFKRERERERER8pCAlIiIiIiLiIwUpERERERERHylIiYiIiIiI+EhBSkRERERExEcKUiIiIiI1jGEYR33d4/HgdrvxeDyVXjdNk/Ly8iNeP9n9T2Yf0zSPeL28vPyI10XqCpuqQETkzKi46TEMA5vNVunGqeL1Y91M+brd8fz5pspisWC1Wr3vVdwgnU75IuI7l8vFoUOHCAoKAiAsLAy32826des4dOgQ9erVo3nz5oSGhlJcXMzu3btZv349DRs2pHXr1gQHB1e6bsvLy8nKymLjxo24XC4iIiJo1qwZISEhWCwWXC4X+fn5lJeXe6/5qKgosrOzWbt2LS6Xi6SkJJKSkvDz8yM/P58NGzawf/9+2rVrR6NGjXTSpM5RkBIR+RuVlpaSl5dHZmYmGzdupKysDJvNRmxsLA0bNiQ4OBiPx0NWVhaJiYkEBgYet7yNGzficDhISkrCYjn5Tgbl5eXk5+eTm5tLWloahYWFWK1WQkJCaNq0qffmKicnh/DwcEJDQ8nOzqawsLBSOVarlaCgIOLi4gAoKysjJyeHgoKCSk+8LRYLgYGBxMTEkJWVRVFREeXl5d4bPY/HU+mp9p9vAK1WK2FhYcTExOgLJGecaZqYpklZWRmlpaVV2hpjGAZutxur1UpaWhpjx44lNzcXgMcff5z8/HymTJnCnj17sNlsXHrppdx5551MmzaNDz/8kAMHDlBeXs7ll1/OI488Qr169YDDoWzOnDk8/PDDREVF0aNHD3777TfCw8N57LHHaN26NevWreO5555jzpw5lJSU4HA4+Pjjj/noo49YsGABmZmZxMXFcc8999CjRw9ee+01Zs2aRU5ODoGBgTzxxBOMHj1aD12kTlGQEhH5m2RkZDB9+nRmzZpFWloaUVFRtGjRApfLxcaNG/Hz8yMxMZHCwkIaNmzIpEmTjhukSkpKeP/993G5XDz44IMnHTQKCgr45ZdfmDFjBsuXL8dut9OyZUsCAwPZtGkThYWFNG3aFI/Hg91u57bbbiMyMpLPP/+cb7/9lg0bNuByuQgNDaVv37706tWLO++8E4CDBw/y9ddfM23aNFatWkVxcTEOh4O+ffvSrVs3brjhBj799FPmzZvHggULyMvLIyAggISEBMLCwrzHWFhYiNvtpri4mJycHK6++mpefPFFfYnkjCovL6egoICCggJ+/vlnDh486FMXuRPx9/enYcOGeDweGjduTHJyMtOnTwfgq6++YsyYMTz22GM88sgjbN68mY8//piCggKaNGnCo48+yrvvvsvs2bN55513OOecc7juuuuwWq38/vvv3H777WRmZvLUU0/Rt29fmjdvzmWXXYbD4eCll14iNTWVe+65h02bNrF69WqcTieffPIJgwcPpnv37jzwwAPs3LmTF154gVWrVpGamkr79u156aWX2L59O5MmTaJ9+/bq5id1ioKUiMjfYMOGDbz00kt89tlndO/enYceeoiRI0cSEBAAQHZ2NjNmzODtt99m6dKlnH/++Se8QVuzZg2//vorWVlZXHzxxScVpPbt28cHH3zAq6++SlxcHBMmTOCyyy4jNjYWONxiNm/ePN59912+//57kpKSKCkpoVmzZjz44IOcd955jBkzht27d9OuXTumTJmCn5+ft/wGDRpwyy230KNHD66//npWrFhBcnIyb775Jg0aNADgzjvvZNy4cUycOJFPP/2UJk2a8NxzzzFo0CBvOWlpaRQXF7Nt2zZeffXVKr1ZFTlVZWVl5ObmkpeXx7Rp05g5c2aVlh8WFsYll1wCgM1mw9/f3/veBRdcwI033oifnx8//vgjO3bsoKSkBJfLxaOPPorH4+HQoUPMnj0bt9vNhg0byM/PJzg4mDfeeIP09HQiIiLo3bs3fn5+1K9fH4/Hw9KlS1myZAnDhw8nKCgIu90OgN1u56abbqJHjx7s3r2bTz/9lCVLlnDo0CHatWvHTTfdRHFxMbNmzWL79u3k5+ezZs0aysrK9EWROkNBSkSkmu3evZs77riD2bNnM3DgQF577TWaNWtWaZvIyEgmTJhAixYtuOeee9i3bx8lJSXHLLO8vJwVK1awceNGCgsLmT17Nu3btyc4OPiY++Tk5PDSSy/x0ksvkZyczHPPPcfAgQMrdcVxOBwMHjyY1q1bExQUxNy5c8nKyvK+36ZNGwIDAzEM47jBLSwszBsSo6Ojj+h2GBISQnJyMgB+fn6EhIRUer9Vq1YAtG/fnoCAAGbNmqUvkpxxfn5+REVFERERwVVXXUWnTp2qrAXGNE0cDgcxMTGsWbPmiPfj4+Px8/M7apdZ0zSxWq2Eh4d736sYO7lz505Wr15NWVkZLpeLn3/+mcDAQFauXAnAjh072LBhA8OHD6/0eYZhkJiY6D22ip/TbrfjcDgACAwM9F7nInWRgpSISDVyOp288sorLFq0iPr16/Pggw96A8TRdOvWjWuuuYYvvvjiuK0wFQPLExIS2LdvH1988QWjR48mJSXlqNuXl5czc+ZMpkyZgr+/P7feeivnnnvuMcczJCQkcMMNN5CVlYXb7fa+7u/v7w1Ff765OhUns6/NZqNXr16UlpbqyyRnXMWYwODgYPr06cOwYcOq/DMyMjKqrCzDMFi/fr13bKPL5eLHH3/EbrdTXFzM8OHD8Xg8xMfHn/I1KlKXKUiJiFSjFStW8N1331FYWMjYsWPp0KHDCSeFGDRoEBs3bqw0e95fLV26FKfTycSJE/nf//7HypUrWbBgAc2aNavUHajCnj17+Oqrr9izZw/nnnsuffr0Oep2f9ayZUsGDx7sffr8d/N4POzfv5/Q0FDGjBmjL5PUKH9+wFCVqjq8/HlGUIfDwfjx42nUqBGGYWCxWPB4PJXGJ4rIydM6UiIi1Wj27Nns2rULwzAYMGDACcMLQP369bniiiu845b+KjMz0zv2aNSoUaSmpmK1Wvnkk0/Izs4+6j5paWn8/vvvAHTu3JmGDRue8DhCQ0MZOXIkHTt2PCN1V9GKtm3bNn2RRE6BaZokJyd7u995PB4KCgpITEykUaNGJCQk0KhRIwUpkVOkICUiZ62Kp7C+TAt+qqxW6xHd5EzTZNu2bRQXF2MYBq1atfIO5D6RVq1aHXO804YNG9iyZQs9evQgIiKCwYMHU79+fZYvX84vv/yCy+U6Yp/9+/dz8OBBABo3bnzEmKRjSUhI8E4ScbT6tdlsx6wPX87T0cpJS0vjq6++Ii8vT12MRE6BaZo0bNiQpKQkrFYrxcXFfPHFFzidTu82y5YtY86cOd5rUUROnrr2ichZyTRNMjIycDqdzJgxgwMHDlTr55WUlLBt27ZKLU4ZGRlkZmZ6/10Vg7ILCgr4/fffqVevHp07dwagb9++tGrVil27dvHVV18xbNiwSjPpFRUVsXPnTu+/HQ7Had8wmabJ2rVruf/++48ITYZhkJOTQ3p6+kmVtXHjRm655ZYjnoofOnTohOdNN35ytnK73ZVmwKuYfOavC3D/uYtexZpTf34vODiYq6++mhUrVpCdnc13331HREQE55xzDvv27WP37t1ceuml3s+oWJAX8AauYy367XQ6K02Ko+tR6hoFKRHQ1MpVrCa0HpimSW5uLqWlpSxYsIClS5dW6+fZ7XZsNhtNmzb1vuZ0Oiu1DlVFvezcuZNVq1Zx4YUXeluVoqOjGTp0KMuXL2fu3LksXbqUgQMHegNOeXk5xcXFVXocpmnidrvJz88/apAqKys76ZuqmJgYevfuTUJCgvda9Hg8bNy4kR9++KHStm63m71795KVlYVpmixbtozQ0FC1WB2DzWZjx44d+h1Xy1gsFtLT08nOzvZeX1OmTOHcc89l48aNLFiwwPud//333/niiy+IjY3lk08+8W4/a9YsUlNTGTNmDCNGjCAjI4PXXnuN9PR03nnnHSIjIznnnHO4/vrr6dy5M4sXL+bFF19k+/btWK1WPB4PL774Io8//jgfffQRmzZtwmq1UlhYyLfffktKSgpr1qxh9erV3hb5Dz74gKKiIp1AqTMUpKRuXwA2G4sWLeL555+vtoHDdY1hGOzZs4ecnJwzehwWi4WOHTty/vnnM2DAAAYOHFitn5eVlcVTTz1FXl6e97XAwMBKEzWc7s2+2+1m1apVZGVl0b1790rhaNCgQbz11lv88ccfzJgxg3PPPde7mK/dbq/UTbAqQofFYqF169Y8/PDDlVq/KuzcuZM//viD3bt3n7CsiIgIRowY4W1h+3OdlpeXVwpqBQUFTJ06lWXLlmG1WlmxYoVP3QjrIrfbjdPpVGtBLTtnTZs25dlnn6VRo0bA4b9X9evXJy4uju+++857HRuGQXR0NDabjcmTJ3v/lhmGQWRkJAEBAVgsFq677jqGDRvG+vXryc3NJSwsjM6dOxMbG4ufnx9t27blP//5D48//rj3OAICAggPD+fqq6/moosu8n6H/Pz8iImJITk5mf79+3uPxel0MmTIEJ1AqTMUpKTufvltNsLDw1m/fj2bN29WhVShij/kZ3J9EavVSq9evejQocMRgaY6ZGRkEBQUVKlrTUxMDLGxsd6bj82bN9OiRYtjjis6kQMHDvDNN9+wZs0ahgwZUunG2OPxkJGRgWEYTJ06leuuu4527dphGAYBAQHeMRJut5tdu3ZRVFREUFDQaf3Mfn5+REdHHzVI5eXlnfTPaRgGdrv9iIk4YmJiGDRoEBEREZVmHWvTpg3x8fGEhIRw7rnnntQEHnWVxWJh48aNVTqltvw9AgMDSU5OpkmTJpVeDwgIICIi4qj7hIaGHre8pk2b0rhxYzweDxaLpdI1GhwcfMxxmfXq1aNevXpHvB4cHFxpUpyioiI92JA6RUFK6qwWLVrwyiuvVHqqL1XHNE2SkpLO6DH4+fkd9Sa/un7ev7JYLHTr1o3vv/+eQ4cOsXr1as4777xTClIej4cNGzawb98+XnvtNSIiIip9pmEYrFu3jmeffZbc3Fw+//xzWrVqhZ+fH4ZhkJycTKtWrVi/fj1btmwhMzPztIPUsX7uqjx/Y8aM8Y7/cLlcBAQE0K9fP7788ktiYmJ44IEHKi1CKkeaPHkyv/76q7o/1jKnu07bsZzqg5yToS6kUtcoSEmdFRERQa9evVQR1UhdiaBTp04kJiZy6NAhZs2axdVXX01iYuIJ9ystLcVut3tnHMzPz+fbb7+lXbt2jB079qh1269fP3788Ufmzp3LV199xfXXX0/jxo0BSExMpGPHjmzYsIFly5axceNGGjZseMIZDcvLyzFN86RnG6xqFZ+bnp7O0qVLufjii7HZbFitVmw2Gw6HQy1SJ1mHIiJStTT9udTtC8Bi0X/V+J+C1OEgNWbMGMLDw1m+fDnvv/8++fn5x90nMzOTn376yTvOzDRNtm/fzrJlyxg5ciRWq/Wo9W232xk/fjzBwcHs3buXb775xltmQkIC48ePp0mTJuzcuZMPPvjghLPqFRcXM3/+fLZs2eJ9zePxVBqbcTrn+GT3LS4u5vvvv2f+/Pn6pSUiIjWGgpSISDW76qqruOSSSwgLC+PFF1/krbfeYtu2bUd0g8nPz2fRokW88847pKWled8vLi7mnXfeweVy0bt372N+jmEYXHDBBQQHB1NUVMSnn37Kvn37vO/37t2bW2+9lcTERKZOncrzzz/PypUrK01fDOByuVi3bh2TJ08+Yl2qjIwMysrKME2TkpKSY3YTMgzDG7jcbvcRrSKmaVJQUABUDmd/5nQ62bVrF5MnT+bdd98lNTVVXyYREakx1LVPRKSaxcbG8uijj9K8eXOmTp3Ko48+ypw5c+jbty+NGjUiMDCQgwcPcujQIbZv306rVq246qqriIyMZM+ePXzzzTd8/PHHhIeHs3jxYlq2bElCQsIRn7Njxw42bdpEQUEBpmmycuVKHnroIW655RZatWpFYGAg1157LfHx8UyePJnJkyezdOlSzjvvPJo2bUpkZCR5eXns37+fvXv3Yrfbufbaa2nZsiU5OTls3bqVr7/+mr1792KaJqtWrWLatGm0bt2atm3bAocHm2/bto3Zs2ezY8cOALZu3cpXX31Fhw4dSElJYfPmzSxbtsw7tXl6ejofffQRq1at8rZSmabJrl27SEtL48cff6RBgwYKUiIiUqMoSImI/A1iY2O544476NOnDz/99BMbNmxg4cKFbNiwgZCQEJxOJy1btuSGG26gXbt2+Pn5YZomxcXFFBYWcsMNN2C329mzZw8NGzY86mcUFBRw8OBBbr75Zu+img6Hg6ysLO9MioGBgVx88cV07dqVH3/8kZUrV7J+/Xq2bt1KXFwcBQUF1K9fnxEjRtCpUyfvRA6lpaUcOnSIgIAAbr75ZuBwq9PevXsrzeZVVlZGdnY2brfbu8inaZrk5ORw6NAh3G432dnZFBcXM2zYMEaMGIFpmpSXl5OWllbp57FYLDRp0sTbilYR1kRERGoCBSkRkb9Rhw4d6NChA0VFReTn53u7tUVERBwxi55hGDRv3pz77rvvpMpu164d7dq1O6ltExMT+ec//4nL5SInJwe3243H48Hf35/o6Ogjto+Pj2fo0KEMHTr0uOWGh4fTt29f+vbte8xtTvS+iIhIbaAgJSJyBgQFBVXJ9OOny8/Pj7i4OJ0QERERH2myCRERERERER8pSImIiIiIiPhIXftEREREahjTNCkrK6OsrKzWHHNtOlaRqqAgJSIiIlKDWCwWNm/ezMSJEwkODj7qOms1UXl5OXl5eTqBUmcoSImIiIjUEBaLhcjISBwOB6tXr/aurVZbREREeJdNEDnbKUiJiIiI1BAxMTG89NJL/Pe//621P4PNZsNm0y2mnP30LRcRERGpIQzDwOFw4HA4VBkiNZxm7RMREREREfGRgpSIiIiIiIiPFKRERERERER8pCAlIiIiIiLiIwUpERERERERHylIiYiIiIiI+EhBSkRERERExEdaR0pEpIq53W7Ky8tVEdVYvx6PRxUhIiJnlIKUiEgVsdvtrF27lmHDhmG321Uh1cTtdpORkcGECRNUGSIicsYoSImIVAGHw0H79u3Jy8sDwDRNVUo1MQyDpKQkWrdurcAqIiJnjIKUiEgVCA8P54477uCWW25RZfxN7Ha7gpSIiJwxClIiIlXAMAwcDgcOh0OVISIiUgdo1j4REREREREfKUiJiIiIiIj4SEFKRERERETERwpSIiIiIiIiPlKQEhERERER8ZGClIiIiIiIiI80/bmIiIhIDVFYWMgPP/zAH3/8gWEYterYTdPEarXSpk0bLrzwQiwWPa+Xs5uClIiIiEgNUVRUxPfff8+0adNqXZACsNlsjBo1igsuuEBBSs56ClIiIiIiNYRpmhQWFtKkSROeeuopGjZsWGuOvbi4mAsvvBCn06kTKXWCgpSIiIhIDRMcHEybNm1ISkqqNcdcXFyM3W6vlS1pIqdCba4iIiLiE9M0cTqdlJSUqDKqsY49Hk+tOma3260TJ3WKgpSIiIj4pLCwkC+//JJp06apMkSkzlLXPhEREfGJYRjs3buXZcuW0aJFC4KCgk7YnctiseDv7090dDRBQUGqRBGp9RSkRERExCeGYeByuZg+fTrbt2+ndevWOByOY25fXl5Ofn4+4eHhtGrVin79+pGSkoK/v78qU0RqLQUpERER8Ylpmvj7+zNo0CBuvPFGGjVqhM127FsKp9PJ1q1byczMZN68efz888/ceOONjBgxArvdrgoVkVpJQUpERER84vF4iIqKYty4cQwfPvyk9unYsSMAl19+Oc899xxffvklrVu3pmXLlqpQEamVNNmEiIiI+MThcNCpUydSU1N93jcsLIxbb70Vi8XCwoULMU1TFSoitZJapERERMQnDoeDdu3anfL+cXFxNGzYkLS0NHJzc4mIiFClikitoxYpERER+dtFR0dz4MABsrOzVRkiUiupRUqkBsvKymLmzJnMmDGD/Px86tWrR79+/Rg1ahShoaGqIPHJtm3b+OSTT1ixYgUlJSUkJCRw2WWXce6552rAv/ikrKyMPXv2YLFYSExMPKUydu/ezcGDB2vdorMiIhUUpERqqPT0dJ544gl++OEH3G438fHxrF27ljlz5rB06VL+/e9/ExYWpoqSk7Jq1SoeeughFixYQGRkJMHBwSxbtox58+Zx5513cs0112gqajlpJSUlrFixApvN5nOQ8ng8rFq1ioULFxIXF6cQLyK1lrr2idRAHo+HKVOm8Nlnn9GlSxe++eYbZs6cybfffkvr1q356quv+Pzzz1VRclIyMjJ4++23WbRoEddccw3Tp09n5syZfPjhhwQEBPDvf/+bFStWqGVAfLJ3715+++03Dh48SFFR0Un9t3PnTv7v//6Pu+66i9WrV9OsWTM9EBKRWkstUiI10LZt2/j1119p2bIl9913H127dsUwDBo0aMCzzz7LBRdcwNSpU7n66quPu3aLCMD27duZPn06/fv351//+hf169cHoF69euTn53P33Xfzww8/0LlzZ/z8/FRhckIWi4XCwkLefPNNpkyZgmEYJ7Wfx+OhuLiY4uJigoKC6NGjB+Hh4apQEamVdAcmUgNlZWWRkZFB165dadasmfcmxTAMkpKS6N69O6tXr2bjxo20bdtWFSbHlZ2dzaFDh+jSpYs3RAHYbDZGjhzJY489xvr163G73aosOWmmaXpD0ano3r07rVq1OukQJiJS06hrn0gNZLPZsNlsZGZm4nQ6K71XVFTErl278Pf3Jy4uTpUlJ+Tv74/NZmPv3r2UlpZWem/Lli2UlpbicDhUUfK3sNvtpKSkcMstt9CqVStViIjUWmqREqmBEhISaNu2LdOnT+e7777jwgsvJDIykszMTKZMmcK6desYP348MTExqiw5oUaNGtGjRw9+/PFHevTowZAhQ/D392ffvn08//zzFBYWMnDgQHUTFZ8FBARQr149AgMDT7itaZreEHXDDTd4uyzL0evKYrEc9ZosKyvD5XLhcDiOeL+goICAgIDjXstOp5OysjICAgJOeqKPkpISPB4PAQEBlc5ZWVkZJSUlhISE6KRJnaS/miI1UHx8PBMmTGDDhg08+OCD/P7773Ts2JGVK1fy9ddf06pVK2666SZVlJyU5ORkbrjhBm677Tbuv/9+1q5dS2xsLLNmzWLx4sX069ePCy64QLOnyUnzeDwEBgYyfPhwrrvuOurXr49pmsfdxzRNgoODadSoEVarVZV4HBaLhczMTH788Ufi4+MB6NixI4WFhcyZM4fs7Gzi4uLo2bMnrVu3Ztu2bSxcuJAtW7ZQv359+vbtS4sWLbBY/n/Ho8LCQpYuXcrmzZtxOBwYhkH79u1JSUnBZrNx6NAh1q1bR35+PoZhYLVa6dOnD6tWrWLRokW43W6Sk5Pp3bs30dHRrF69moULF5KVlUWbNm3o16+fZv6UOkdBSqSG6tevH0899RRvv/02S5YsYebMmURHRzNs2DCuuOIKOnTooEqSk2KxWBg0aBD/+c9/+OSTT/j4449xOp3ewP7Pf/6T2NhYVZT49J1q0aIFKSkpDBo0qM783IZheP+rrolZrFYrFouFgwcP8tRTT7F7924AbrrpJgICAvj9999ZtmwZbreb8847j9tuu42ff/6ZRYsWsWHDBgoKCujfvz8vv/yydwxtXl4e77zzDq+88go9e/Zk0KBBzJw5k1dffZXHH3+cIUOGkJWVxTfffMMHH3xAQUEBAC+++CJLlixh7dq1bNiwgaCgIP75z3/SvXt3pk+fzrJly9i6dSsej4dbbrmFe++9V62MUqcoSInUYIMGDSIlJYW1a9eyf/9+4uPj6datm6YLFp+FhoZyxRVX0KdPH1avXk1RURGNGjXinHPOITg4WBUkPnE4HHTq1KnO3TS7XC5ycnLIzc1lypQprF69ukrL9/f3Jzk5GY/HQ8OGDWnevLk3SO3evZtrrrmGcePGceedd7Jo0SJ++eUXgoKCGDNmDOPHj+f111/n448/5pdffmHGjBk0bdoUf39/vv32W55++mncbjf33Xcf7dq1IyYmhhEjRvDKK6/QokULWrZsyU033cTChQu9a4Tt2bOHG264gby8PG688Ub27dvH5MmTcblcXH755VxyySXcf//9rFmzhjfffJPzzz9fyyhInaIgJVLDxcfHe7t2iJyuxMREnxdQFfkrm8120pPdLF++nM2bN+N0OrHb7TRp0oT27dvXynE15eXl5OXlkZeXx7fffsusWbNO2KXRF2FhYVx66aXA4Va/P3fNO//88xk5ciQALVu2ZNmyZZimib+/P5dccgkAa9eu5eOPPwZg3759OJ1O3G43H330EdnZ2cTExHgn+Kh4ILd+/XqWL19O06ZNK32mzWbjqquuok2bNuzbt49GjRqxb98+SktLad26NYMHD8btdvPWW2+xZs0aysvLSU9Pp7y8XBeI1BkKUiIiIuKTQ4cO8cEHH5CWloZhGLjdbhwOB2PHjqV37974+flRVFTEO++8w2effcauXbtwuVzYbDbi4+MZNWoUN954Y62bMMfPz4+YmBhiYmK46aab6N69e5UGKbvdTkBAABs2bDii3NDQUODw+LSKpQoMw8DhcODxeLBYLJXGKFksFgzDYNu2bezYsQOPx0NRURFPP/00/v7+bN68GTgcuLZs2QJQ6TMNw/Cu8VVeXu5tabLZbN4xblar1TuxhWEYlYKfSF2gICUiIiI+CQwMJCwsjC+++AKn08mQIUO46KKLaNy4MVarFY/HwyuvvMLLL79MRkZGpX0PHDjAzp07MQyDW265hYiIiFrzc1utVgIDAwkMDKRTp07VMj7s4MGDR339WIHteEHOMAz++OMPioqKvP92OBz4+fnRsmVLHn30UTweDz169PC5bBFRkBIREREfBQUFERcXR0REBPfeey//+Mc/SExM9I6ZWrx4Me+++26lEBUXF8f48eMJDQ1l5syZvPfee3Tv3p2BAwfWup/fNM1q68JW1WOMGjRo4G2pstlsnHvuubRu3drbYmWaptaREzlFClIiNVjFH+uDBw+yZ88eWrZsSVBQEFarVTMjic8qugTt27ePrKwskpKSCAkJ0fpR4rOcnByWLFlC//79ufXWW71dwODw762pU6eyb98+72v16tXj8ccf56KLLsJms3HppZfyyCOPsHz5cnr27ElAQIAqtRqYpkn9+vW99VteXs727dvp1q2b92+IaZpqeRI5RerMKlJDud1uNm7cyI033kifPn0YM2YMnTp1YtKkSezevVt/+MQn5eXlLFq0iPHjx9O/f38uvPBCBg0axL///W8OHTqkChKf5OfnA3DJJZdUClEAq1ev5ocffqCkpAQ4PMPf0KFDufzyy4mIiCAkJISWLVsyZswYCgoKjuj6J0dX8Tv/aA/R/hyK/rpP48aN6dChA3a7neLiYj744AP2799PSUkJRUVFTJ8+nWnTpp3wM4/2uQphUtfpMaRIDWSaJitXruSee+5h9erVnHPOObRo0YK1a9fy3nvvsWDBAqZOnUqDBg1UWXJCbrebOXPmcNddd3Ho0CF69epFTEwMv/32G88//zxZWVk8+uijtWqsipxZBQUFZGZmHjEDZFlZGZ9++ik7d+703mDHxsZy5ZVXHrFYa2BgIMXFxd7AJZWVlJSQm5vr/ffBgwcpKyujtLTUOxsfgNPppLCwEMMw2LFjh3f7oqIiioqKCA8P58Ybb2T58uVs376dBQsWcOWVV5KamsqhQ4ew2WzccccdlJSUsHfvXu94Krfbzd69e6lfvz75+fne81ReXk5hYSElJSVkZ2eTnZ0NHG7xzs/PV7CSOkVBSqQGKigoYPLkySxbtozbb7+d2267jfDwcLKysnjppZd4//33+d///sdTTz2lypIT2rlzJ6+//jo5OTk888wzXHLJJd6brptvvpmPPvqInj17Mnr0aHXzk5NS0TpRVlZW6fX58+czY8YMiouLgcOz3J1//vl06dLliDLcbrdmejsGi8XCvn37sNlsNG/eHIB58+YxdOhQ0tLS2LlzJ8nJyQDs2rWL7777jri4OObPn+/d/o8//mD27NmMHTuWHj168NJLL/Hqq6+SlpbGpk2b2LVrF/369eOmm26iRYsWLFq0iLfffhuA5s2bY7FYmDx5MsnJyXzzzTe4XC6aN2+OYRgsWrSIrl27smbNGvLz872v//DDDzidTp1AqTP0F1OkBtq2bRtLly6lV69eXHnlld71WurVq8fNN9/M7Nmz+f7775k0aRJBQUGqMDmuPXv2sHDhQsaOHcsll1zibRlo0aIF9957L1dffTU///wzF1xwgYKUnJTw8HBCQ0OZM2cOCQkJBAQEcOjQId588022bdvm3S46OpqrrroKu91eaX+32822bdsICAjQAuNH4Xa7adu2Le+//743MFWEzpYtW3LhhRce0e3OMAz69OlzxOsVQXXIkCEMGDCArVu3kp+fT2hoKC1btvROOtGjRw+6det2xBToVquV+++/n3vvvbfS6xaLhe7du3P99dd7Xy8sLKRt27Y6gVJn6C+mSA1UUlJCcXEx7dq1IzIy0vu6YRhERUXRpEkT1q1bx44dO/RHS06ooKCAvLw8kpOTK3WvMgyD7t27ExAQQGZmprrkyEmLioqicePGvPDCC+zYsYNGjRqxZMkSZs2a5Z3Nzm63M27cOFJTU48YX7Ns2TK+/PJLxo0bR3R0tCr0GGw22xEPN4430VDF+k5HUzH1eZs2bY75/rH2/+viwH/e58+vH+/zRc7Ka1RVIFLzhIaGEh4ezrp169i/fz9RUVHe9/bu3cvatWuJiooiISFBlSUn/X36448/yMnJqTQWavbs2RQWFhIXF6eZIOWk+fv7M2zYMObOncurr7561G2GDBnCHXfcgZ+fn/e1jIwMli5dymuvvcb+/ftp377933LzXXHDf7otrjabTV0RRcRLQUqkBkpOTqZPnz48//zz/O9//+Pqq6+mQYMG7N69m9dff539+/dz1VVXHTFblsjRNG3alKFDh/Ldd9/RuHFjxo0bR2hoKJs2beKFF17AMAyGDx9+RPcrkeNJSkri0UcfJTo6moULF5KVlYXb7SYyMpJzzz2Xu+++m4YNG2KaJlu2bOH7779nyZIlzJ49m8zMTGJjY0lLSyM1NZXg4OBqO86CggJcLhfp6eksXry4UrDzVWlpqXcxYRERBSmRGsjf35/x48ezceNGPvjgA5YtW0bjxo1JT09n3bp1XHrppVxxxRWqKDkp8fHxXHPNNWzcuJEXX3yR+fPnExERwerVqykuLuaf//wngwcPVrcc8VlKSgrPPvssK1asICMjA7fbTUxMDD169CAkJAQ4PJuby+WiuLiYJk2acNNNN2GxWPB4PERFRVX5ArR/tX37dnJzc/niiy/45ZdfTqtFyePxcPDgQQIDA3XyRURBSqSmat26NY899hidO3dm7ty57Nu3j4YNG3LxxRczbtw4TX0uJ80wDLp168bLL7/M1KlTWbNmDfv27aNDhw6MHDmSoUOHntZTeqnbwsLC6N+//zHft1qttG3b9oyN5wwODsbPz4/ExERatWqFzWY7pfGAhmFQVlbG+vXryczM1IkXEQUpkZqsVatWNG3alFGjRlFSUkJISAjx8fE4HA5VjvjEz8+Pbt260apVKw4cOEBZWRlhYWE0bNhQlSM+czqdrFixAqvVSvfu3U+pjFmzZhEXF8c555xTrceamJhIaGgow4YNO+p6Vr7+3G+99RYfffSRvgQioiAlUtPZ7XaaNm2qipAqERYWpumm5bSVlZWxefNm78yPp+Lnn3+mQ4cO1R6kKiaICAoKIioq6rQeRJWUlGjJCRHxUpASERERn1gsFg4ePMiXX37J/v37CQkJOenuchWLzU6bNo2UlJS/5XhN0/T+dzo8Ho+WCRARLwUpERER8YlhGJSXl7Ny5Uo2bdrk80QlZWVlFBcXa/Y7EanVFKREagGPx4PH4znmoogivnC73Xg8Hk13LqfFMAw8Hg8FBQWnVYaISG2lICVSg5WXl5OVlcXGjRvJyMggPj6e5s2bExMTo6mqxWelpaUcOHCAtLQ0srKySElJISEhgYiICN3Qis8qpi23Wq34+fn5NI25x+OhrKxMlSgitZqClEgN5XQ6+fXXX3n88cfZtGkTDoeDoqIiOnXqxAMPPEDv3r3VoiAnraCggK+++oqXX36ZnTt3YrfbKSgoYNiwYTz88MO0adNGYUpOmsViITo6mgYNGmCz2WjSpAnx8fHehXWPN47IMAwKCgqYO3duta8hVZsZhlHrHpjZbDb9HpE6RUFKpAYyTZM5c+Zw991343K5uPbaa2ncuDGLFy9m9uzZ3HDDDXz88cd069ZNlSUnVFJSwhdffMGkSZNo0KABt956K1FRUfz222/Mnj2bzMxM3nvvPRITE3UTJCclICCAyy67jEaNGjFjxgzy8vLo3r07HTt2JCkpiXr16nm3PVao+te//oXNptuQY8nNzWXhwoWkp6fXmmN2Op2UlJRoQg6pM/QbTKQGyszMZNq0aWRnZ/Pyyy8zduxYbDYbN9xwA//3f//HI488wv/+9z86d+6sLn5yQtu2bePNN9+kYcOGvPLKK/To0QOACRMmcO+99zJlyhS+/fZbbrrpJrVyykmrWJtp8ODBLF++nGnTprF8+XIaNWpEhw4daN26NS1atDhmOB8wYADx8fGqyL8wDIPQ0FD27t3LDTfcUKtCiWEYOBwOb8ukyNlOQUqkBtq5cyd//PEH5557Lj179vQ+tbVYLFxxxRV8/fXXLF++nP3795OQkKAKk+PKyMhgy5Yt3Hbbbd4QBYdvhG+99VZ+/PFHVqxYgdvtVpASn9ntdrp370737t3ZvHkzv/zyCz/++CPz58+nYcOGdO/enXbt2h2x/tKwYcNUeUcRHBzM6NGja213W4vFQosWLTQxktQJClIiNZDL5aK0tJTIyEgCAwMrvWexWIiMjGTv3r24XC5Vlpz098nf3/+I9+Lj47HZbBQWFqo7jpy25s2b07x5c7Kzs5k/fz6zZ89m06ZNxMXF0aFDB7p161ap258cKSgoiGHDhiloitQCelwgUgPFxcVRv3595s2bx5YtWyq9t2LFChYvXkyTJk1o1KiRKktOKCoqiri4OObMmcOOHTu8r3s8Hr744gtyc3P1BFmqVGRkJCNHjuSVV17hsssu48CBA0ycOJHbb7+d//3vf6SlpamSRKTWU4uUSA3UqFEjRo8ezYMPPsikSZO47rrraN68OZs2beL111+nsLCQCRMmaKC2nJTmzZszbtw4XnnlFSZNmsS4ceOIj49n0aJFvPnmm8TFxXHxxRerW59UKZfLxdKlS5k1axZbtmwhPT2dbdu28dNPP9G+fXs6dOjA9ddfT+vWrVVZIlIr6S5MpAay2+2MGjWKgwcP8tJLLzFx4kSio6PJzs7G4/Fw//33M3ToUFWUnJSwsDCuueYa9u7dy3fffcfixYsJDg5m7969JCYm8tBDD9GuXTu1SEmVyM/P57vvvuP7779nzZo1bNq0qdKaUXl5ecyfPx9/f3/Ky8tVYSJSaylIidRQMTEx3HTTTXTr1o2ff/6ZPXv2kJycTN++fencubNmRRKfNG3alGeffZZRo0bxyy+/UFBQwFVXXUW/fv1o27atZn+U02KaJlu3buXrr79m1qxZbNy4kQMHDlRaJ8owDKKiohgxYgTDhw+nXbt2NGzYUJUnIrWWgpRIDRYZGcmAAQPo3LkzLpcLf39/goODtdaP+MwwDOrVq8fIkSPp168fbreboKAgAgICVDlySjweDy6Xi7Vr1zJ58mTmzp3L7t27ycvL825jsViw2WwkJCQwfvx4hg8fTtOmTYmKilILqIjUegpSIjWcYRiEhYWpIqRKWK1WIiIiVBFyWkzTZOXKlfz73/9m4cKF5OXlUVJS4n3fbrfj7+9P+/btufjiixk8eDANGjQgKCjI+yCorKwMi8Wi1lARqbUUpERERMQnxcXFzJkzhxkzZlQa51SxGOuwYcO48MIL6d27N8HBwTgcjiPK+OGHH6hXrx6dO3dWhYpIraQgJSIiIj4rKyujvLwcq9VKaGgo9erVY+DAgVx22WW0b9/+qOHpz/vOnz+fjh07KkiJSK2lICUiIiKnzN/fn549e3LJJZfQqFEjysvLWbFixXH32bhxI9OnT6dNmzaqQBGptRSkRERE5JRERETQuHFj9u3bx3//+9+T3s/lcrFv3z5NnCMitZqClIiIiPjE4/EQFBTExRdfzK233urThBGGYZCXl8e///1vzdwnIrWagpSIiIj4xGKx0LJlS1JSUk65e97o0aNJSEhQZYpIraUgJSIiIj7x9/enU6dOp9U1r3///lrHTERqNQUpERER8YnVaiUmJua0ylBrlIjUduqcLCIiIiIi4iMFKRERERERER8pSImIiIiIiPhIQUpERERERMRHClIiIiIiIiI+UpASERERERHxkYKUiIiIiIiIjxSkREREREREfKQgJSIiIiIi4iMFKRERERERER8pSImIiIiIiPjIpioQETl9e/fu5aWXXsI0TUzTVIVUI4vFQuPGjRk5ciQJCQmqEJET2LdvH3PmzGH9+vVYLBbat29P//79iY2NVeWInAYFKRGRKnDgwAH++9//EhQURFRUlMJUNTAMA7fbzcGDB0lJSaFLly4KUvK383g8uN3uWnONL1iwgFdffZW5c+dSUFAAQEREBOeffz533nknKSkpOqkip0hBSkSkChiGQWBgIJdddhlXX321KqSa5OXl8eqrr3LgwAEsFvVOl7+XzWajVatWDBs2rFaE+N27d/Pss88ye/ZsrrjiCi688ELcbjdTp07ls88+w+1288wzzxAfH6+TK3IqvxNUBSIiVcNqtZKYmEjXrl1VGdUkLy+PqVOnsn//flWG/O3sdjsDBgyga9euRERE1PjjnT17NkuWLOGaa67h3nvv9Ya/Vq1aYRgGc+fOZdmyZYwYMUInV+QU6HGeiEgV8ng8qoRqVF5erjqWM8YwDEJCQqhXrx7+/v41/nj37duH0+lk3LhxlVrQkpKSGD16NDk5OezatUsnVuQUKUiJiIiInMVsNtsRY7oqXtN4TpFTpyAlIiIichZq2LAhISEhvPHGG+zduxfTNPF4PGzfvp333nuPuLg4mjRpoooSOUUaIyUiIiJyFho6dCjTp0/niy++AOCaa66hrKyMt956i5kzZ3LppZfSs2dPVZTIKVKQEhERETkLRUdHc/vtt1NeXs7s2bP55ptvAAgNDWX06NHccccdhIWFqaJETpGClIiIiMhZ6txzz6VVq1b8/PPPbNiwAcMwaNeuHQMGDKgVMw+K1GQKUiIiIiJnsejoaC655BJVhEgV02QTIiIiIiIiPlKQEhERERER8ZGClIiIiIiIiI8UpERERERERHykySZEREREzmIrVqxgypQprF+/HsMw6NChA5dccgkpKSmqHJHToCAlIiIichYyTZOvv/6ap59+mk2bNpGcnIzH42HhwoXMnz+fSZMmcf7552MYhipL5BQoSImIiIichVavXs1zzz1HRkYGr7zyCv369cPj8fDDDz/wxBNP8Morr9CyZUuSkpJUWSKnQEFKRKQWcblclJaW4na7sVgs2O12/Pz8sFqtOJ1OHA4HFosFt9uNx+M5YXl2u/2or5umidvtxjTNY+5rtVqxWA4PtfV4PLjd7iO2sdlsetotcob8/vvvbNmyhYceeogxY8YQFBQEwKWXXkpmZiavvfYa8+fPV5ASOUUKUiIitYDb7SY9PZ1ff/2VDRs2kJGRQVRUFPXq1eOcc86hTZs2vP/++1x99dU0aNCArVu3snXrVgoKCiqVY7FY8Pf3x2q1UlhYSJs2bYiMjCQsLMx7kwVQXFzMhg0b2L17Ny6Xq1IZNpuNoKAgmjVrRnJyMoZhkJmZydKlS71Br+JzevXqRVRUlE6gyBmQm5uLy+WiZ8+ela7vsLAwunTpgtPpJDc3VxUlcooUpEREajiPx8Ovv/7KpEmTMAyDW265haZNm1JYWMjPP//M7bffDkBGRgZjxoyhfv365OTksHr1aiZPnsy2bdu8ZTVt2pRRo0YRGRnJ9OnTWblyJUlJSVx00UVcdtllNGnSBIvFQllZGRkZGXz77bdMnz6doqIibxmDBg1i0KBBxMTEYJomhmFQXFzM5s2bWbx4MT/88AONGzdm5MiRdOrUSSdQ5Ayx2+1YLBZycnK812rF75QDBw5gtVqP2SotIiemICUiUoOZpsnWrVu59dZbyc3N5YUXXmD8+PHe9/v27UvPnj154IEHvK1PFouFbt26kZKSgs1m47777vNu36VLF26//XZiY2MZMWIE48aNY82aNWzYsIGff/6Zd955h5YtWxIeHs7w4cOJi4vzBqSKsu+991569erl7dYH0LhxY+666y5Wr15Neno6F198MXfffbdOoMgZlJqaSnR0NC+88AKxsbE0a9YM0zRZv3497733HgkJCZq5T+Q0aB0pEZEarKysjM8//5wtW7YQFBREq1atKr1vs9kYNmwYEyZMICIiotKYJqvVSmBg4BFlVjyVbt68Oe3atcNms+F2u1m9ejVffPFFpW0bNGhAvXr1Kr0WExNTKUT9Wb169WjQoAEOh0MnT+QM69evH2PGjGHx4sXcfffdvPDCCzz//PNMnDiR9evXM378eHr06KGKEjlFapESEanB3G4369atw+PxUFxczNatW2nfvn2lbaxWK5dddhlffvmlz+UHBAR4Q1F5eTm7d+8+Ypu/TjhxvAkoTNM87vsi8vex2WxMnDiR8PBwvvrqK15//XUMw6Bx48Y89NBDXHXVVcd8KCIiJ3GNqQqkLsrLy2P27Nls2bLlpGY2E99YLBbatm3L8OHDVRlVoKSkBMMwOHToEC+++CIul4uBAwcSExPj3aZevXpcdtllREZG+lT2n2fUs1gsPu8vIjVbVFQUEydOZMCAAaSnp2MYBsnJyZxzzjmaUVPkNClISZ2UnZ3N22+/zaxZs4iOjsZqtapSqkhZWRnZ2dmMHz9eQaoKGIZBTEwMhmFQVlbG77//zo4dOxgwYABDhw7l/PPPJzw8HIAJEyYctSvf0cqEw61HBw4coKysDICkpCRGjBihShc5y1itVjp37kznzp1VGSJVSEFK6iTDMLBYLKSmpnL33XdXerIvp2fXrl089NBD2Gx169dLdT3ZtdvtjB07lmnTppGfnw/Avn37+Pjjj5k7dy7Tp09nxIgRjBgxgpCQkBOW53a72bNnD+np6cyaNYvFixfToEEDBgwYwCWXXEK3bt3qfJ2fbfSgSESkeihISZ1lmiYxMTH07dv3iMH0cuq2bt1KaGhojTmejIwMDh48WK2fYRgGmzdvrpayrVYrvXv35r777uPJJ5+kuLjY+96ePXuYMmUKCxYsYO7cudxzzz00bdr0uOWtXr2aV199lT179rBkyRLsdju9evVi+PDhDB48uNZ8zwzDICsri/fff59t27YpLBzH5s2bKS8vV/AUEaliClJSp5mmSXl5uSqiCpWVldWIyQZKS0t55JFH+OWXXyqFj+pQsY5SdQkMDOTGG28kKiqKF198kU2bNlWq4927d/PRRx+Rn5/Pyy+/TFxc3DHLSkpK4h//+AcBAQH8+OOPvPXWWyxYsIC0tDTmz5/PrbfeSnJyco3/nhmGQW5uLtOmTWP+/Pm68I5TT0FBQbjdblWGiEgVU5ASkbOSx+Nh/fr1bNq0iTFjxlTrzFQVE0HMmTOnWso3TZPw8HCuuOIKunXrxpdffsmUKVPYsWMHbrcb0zQpLS3l22+/pWfPnlx77bUEBAQctayoqChSUlKIioqidevWuN1uXnjhBQ4cOMD27dvZs2cP77///kl1EzxefVR364dpmiQkJPDqq69WWixYjjRz5kz+/e9/azbFOsztduNyudi6dSsWi4Xk5GTsdrtackVOk4KUiJy1LBYLsbGxPPPMM9jt9mr9rDVr1lRLkHK73fzxxx+0adMGf39/2rVrR3JyMmPGjOGzzz7js88+Y+fOnbjdbkpKSvjll1+47LLLjhmkTNP0zlQZEhLC9ddfz4cffkhRURFOp5MFCxbwzTff8I9//OOUjtfj8RAfH09UVFS11rdpmvj5+dGkSRN90U9g1apV6tZXh5WWljJlyhTefPNN9u7dCxxeQPvmm29m1KhR+Pn5qZJETpGClIic1SwWC2FhYdUepIKDg6ul3JKSEh5++GE+/PBDwsLCAAgKCqJt27Y8+OCDDBkyhEmTJrFw4ULcbjebN2/2zsJ3MmJjYyvVTUFBAevXr/f++2itGMdr2cjJyaGsrIygoCB9+WoItUTVXWVlZbz22mu8/PLLOBwOevfujdvtZvHixdx///3k5ORw7bXX1rnJgUSqilZhExGpwTweD5s2bWLlypWVbogNwyAgIIAePXpw5513kpiYCEB8fLxP3XX+2uXRMIxKwepo3X+ysrKOeXOemZmJ0+lUkBKpARYvXsx7771Ho0aN+OSTT3jnnXd47733eP/99wkLC+Odd95h9erVqiiRU6QgJSJSwxUVFfHJJ58cdSyQxWIhKSnJ21rVrFkzn7rq5ObmVpqIIC4ujp49e3r/HRsbS7NmzXA4HMDh1o0FCxZQWlp6RFlut5v169djsVi8wU5Ezpxly5axf/9+7rzzTlJTU/H39ycgIIBu3bpxzTXXkJ6ezqpVq1RRIqdIQUpEpIYrKSlh6tSpTJkyBafTecT7S5YsYdeuXSQmJjJy5EjvorwWi+WI7V0ul3eMlNPp5O233+bQoUPA4dasCRMm0K9fv0r7XHTRRXTq1Ak4HKRmzJjBhg0bKrVKeTwe5s+fz5w5c+jevfsJp2EXkepXVFREWVkZjRs3rtR9z9/fn5YtW1JaWlrts5qKnM3UKVZEpBYICQnh2Wef5dChQ/Tr14+AgAAMw2Dv3r18+umnxMXFMWnSJPr164fFYiEtLY0VK1YwY8aMSuUsXbqUDz74gEaNGrFhwwa++uor6tevT9OmTRk2bBjXXHMN/v7+lfbp2LEjt99+OxaLhZUrV7J48WImTpzI6NGjSUxMpKysjF27drF06VJatWrFyJEjdcJEaoCgoCBsNhvr168nNTXVO+lIWVkZa9aswc/Pz/vgRUR8pyAlIlKDWa1WBg4cyJAhQ9i5cycbN25k//79WCwW7HY7+fn5pKamMnz4cM4991z8/PwoLy/n4MGDpKen0759e1JTU73leTweMjMzycrKoqioiGuvvZbmzZuTmpp6zIWpDcNg7NixJCcnM3fuXJYsWUJ6ejpvvPEGDRo0IDQ0lNDQUEaMGMGQIUO83QxF5Mw699xzSUpK4rXXXiMwMJCOHTvidrv59ddfefPNN2nVqhXdunVTRYmcIgUpEZEazN/fn8cee4xmzZoBhyd62Lp1KwUFBdhsNho0aEDTpk0rTW9ts9no06cPffr0qdJjSU1NJTU1lYMHD7Jr1y6KioowDIO4uDiSk5M185ec9UzTpLCwkMLCQiIiIo5ova1pOnXqxI033sjTTz/N3XffTZs2bXC73axcuZLo6GhuuukmUlJSdGJFTpH+6omI1GAWi8UbouDwgrrVvUbTicTGxhIbG6uTI3WOy+Vi1qxZ/PDDD/zzn/+kS5cuNfp4DcPg0ksvpWHDhnzzzTds3LgRwzAYP348o0aNonv37jqpIqdBQUpERETkJFSs1TZr1ixGjBhRK445KCiI888/n44dO5KZmYlhGMTGxhIZGakTKnKaFKRERERETpLVasVutx+xBltNFxMTQ0xMjE6gSBXS9OciIiIiIiI+UpASERERERHxkYKUiIiIiIiIjxSkREREREREfKQgJSIiIiIi4iMFKRERERERER8pSImIiIiIiPhIQUpERERERMRHClIiIiIiIiI+UpASERERERHxkYKUiIiIiIiIj2yqApHql5+fz549eygrKyMgIICkpCTsdjsApmmSk5NDZGSkKuosYBiGKqEaWSwW1bGIiNQIClIi1aSgoID58+cza9Ysli9fjr+/Pw0aNODgwYMUFRXRtWtXEhMTycrKokmTJowYMYIvv/ySH3/8kYyMDEzTxDAM701jTEwMCQkJtGrViq5du9K+fXssFgs7duzg888/Z9WqVezbtw/TNAGIjY0lKSmJhx56iPDwcADcbjeLFy/mnXfeYdeuXZSWluLv709iYiL3338/TZs21Yk7DSUlJXz33XdkZmZ6z4NUfR0vXLiQ0NBQVYaIiJxRClIiVcw0Tfbv388zzzzD119/TaNGjbj00kvp06cPgYGBuFwuVq1axddff82UKVNwu93ccccdBAcHM3z4cGJiYnjsscdYtWoVbdq04ZFHHsEwDPLz8/njjz945pln8PPzY9SoUdx+++3Uq1ePyy67jKZNm/LYY4+xfv166tevz8SJE0lJSSE4ONh7bBaLhZSUFO6++25eeukl3n33XR599FHGjx9PgwYNdPJOg8ViwWq1sn79ejZt2qQKqcbrq6ysjE6dOmGxqHe6iIicOQpSIlXINE127drFlVdeybJly+jbty9PP/00zZo1w+FweLdr2rQp/fr148knn+STTz5h+/bt2Gw24uPj6dGjBx06dGDVqlXEx8eTkpJC06ZNcbvdFBcX07NnT2655RZef/11MjMzefnll2nYsCGGYdCkSRPWr19Px44d6dixIwkJCZWOzzAMQkNDadOmDf3792fHjh306dOH5s2b6+SdptatWytA/Y0cDgcRERGqCBEROWMUpESqUH5+Ps899xzz58+nTZs2PPDAA7Rp0+aIMR0VoemRRx7hwIEDuN1ub1c+i8WCzfb/L03TNLHZbNhsNhwOBwMHDmTMmDG8+uqrzJ07l7lz5zJ8+HAsFov3Cb2fn98Jj9VutxMeHk5AQIBOXBXw8/OjUaNGqggREZE6Qv0iRKqI2+1mwYIFfPjhhwQEBDBixAi6du163IHx4eHhXHLJJT6FmYCAALp27YrFYiE3N5etW7ee8jH/eQyWiIiIiJw8tUiJVJGysjI+++wznE4nCQkJ9O/f/4RjOOx2O4MHD8btdvsUaFwuF3B4XM7JtD6JiIiISNVSkBKpIqWlpcyfPx+3201ISAgdOnQ4qf1CQkK4+OKLffqchQsX4vF4iI6OPunP+btUtHKd6YkA/Pz8NBmBiNQ6pmlSUlLifWBW2xiGgc1mIzAwUCdTznoKUiJVwDRN9u7dS2FhIXC4pakqBsL/tcUpIyODn3/+mW+++YaQkBDGjh1Lly5dalRdlJWVUVRUxNatW/noo4/O6HHs379f05CLSK1SWFjIzJkzWblyJR6Pp9Ydv5+fHykpKYwbN04Ps+SspyAlUkX27NmD2+2u0jJ37NjB//3f/xEXF4dpmqxevZply5aRlJTEqFGjuOGGG7BarTWqHkpLS8nNzeXAgQOkpaWd0SBjsVi00LGI1CqFhYVMmzaN7777jsaNG9e43/HH43a72bZtG6NHj2bs2LEKUnLWU5ASqSL+/v7ecU5VNYGD0+kkLS2N3bt3A5CcnEzPnj3p2LEjXbp0qZF/pBwOB+Hh4SQmJnLzzTefsSDlcrn4v//7P7Kzs/XlFJFao6J7dIsWLXjooYeIjY2tNcdeXFzMhAkTKs08K3I20zddpAoYhkFSUpI3QJWWlnLo0CFiYmJOq9wWLVrw4IMP0rRpU4DjlldTurDZ7XaCgoJo0qQJ48ePP2PH4Xa7+eqrr8jJydEXVERqneDgYDp16kTjxo1rzTE7nU5NgCR1itpcRapIdHQ0qampGIZBYWEhGzZsOO0yDcMgIiKCmJiYE4YyPz8/7Ha7T+WbplnlAayizDPdt9/lcml8lIjUWqZpVnl38epWXl6u37tSpyhIiVQRq9XKgAEDsNls5OTksGDBgiop92T/KFUELoC9e/fidDpPWG5YWBjBwcE6eSIiIiI+UpASqSJ2u52LL76Y1q1bU1hYyIwZM1i7du0J93M6naxbt+60n+LZbDYaN25MYGAgaWlp5ObmHnNb0zTZsmULAQEBNGrUSCdPRERExEcaIyVSRQzDoFGjRtx3333cfvvtrF69mmeeeYb//Oc/1K9f/4jBt+Xl5RQUFPDBBx9gGAZt27YFOK1ucT179qR169asXLmSzz//nMaNGxMdHV1p8ovy8nJWrlzJ6tWrGTZsGEFBQTp5VcDj8VBaWqqK+JtYLBbsdrtmBRMRkTNGQUqkKi8om40LLrgAi8XCM888w8yZM0lPT+fGG2/k3HPPJSQkBIC8vDwWLlzItGnT6N69O9dffz1wuHVq8+bNpKWlebc7dOgQCQkJBAUFnfCmsUuXLtx888088cQTvPnmmzidTm644Qbq16+PxWKhqKiI3377ja+++orOnTszduzYKpthsK5LT0/nrrvuAmrOxB9nK9M0adWqFdddd513IhYREZG/m4KUSBULDAxk9OjRdO3alffee4/p06fz6KOP4u/vT9OmTSkrK+PAgQP07duXG2+8kV69ehEYGEhRURGzZ89mypQpHDx4kCZNmpCbm8tLL71E586dufbaa0844YTNZuOyyy7Dz8+PTz75hJ9++onZs2fTsmVLHA4HO3bsIDY2lvHjxzN69GitPF+F8vLy+P777wkLC6uSxZjl6NxuN9nZ2WRnZzNu3DhViIiInDEKUiLVcWHZbDRq1IiHH36YO++8k507d1JQUIDFYvE+TQ8NDcVisXhbmYKCghgxYgRDhw6t1KJhGEal7U7Ebrczfvx4xo4dy7Zt27zrKJmmSXBwMK1bt8ZqtapLVBUzTROHw8Ett9zC/fffrwqpJllZWUyaNKlKxhWKiIicDgUpkWpiGAZWq5Xw8HDCw8NPah9fAtPJlNOyZUudiDNwzrWOSvXx8/PTQwAREakR9NdIRERERETERwpSIiIiIiIiPlKQEhERERER8ZGClIiIiIiIiI8UpERERERERHykICUiIiIiIuIjBSkREREREREfaR0pERERkVrCNE1M08QwDAzDOOHrf+XxeABOuN3J7HOynylytlKQEhEREalh3G43+fn55ObmAhAYGIjH4yEtLY1Dhw5Rr149mjRpQmBgIKWlpezfv58//viDhIQEWrRogb+/f6VwU1Hepk2bKCkpISoqyru/YRiUl5fjdDopLy/37hcSEkJBQQHr16+ntLSUpKQkEhISsNvtFBcXs2nTJvbv309KSgr16tXTSZM6R0FKRERE5CR5PB48Hg9Op5OCggJM06yysg3DwOVyYbVa+eOPP7jwwgspLCwE4IknniAnJ4fJkyezf/9+7HY7l19+OXfccQdTp07l3XffJSMjA9M0mTBhApMmTSI2NhaAsrIy5s+fz8MPP0xQUBDdunXj999/Jy4ujkceeYRmzZqxevVq/vvf/zJv3jxcLhcOh4PJkyfz3nvv8dtvv5Gbm0t8fDz33nsvPXr04OWXX+b7778nPz+f4OBgnnzySYYPH66WKalTFKREREREToLL5SI7O5vMzEzef/99fv31V2+3t6oQFBRE586d8Xg8JCYmkpyczIwZMwD49NNPGTlyJPfffz9PPPEE27Zt47333iMnJ4d69epx33338cEHH/Drr7/yv//9jzZt2nD11VdjtVpZsmQJt9xyCwcOHODjjz+mf//+fPnll1x55ZXY7Xaef/55UlNTueuuu9i4cSNr1qzBarXyzjvv0Lt3b9q3b8+jjz7K1q1bee655+jduzetWrWiadOmvP7666Snp3PvvffSpk0bfUmkTlGQEhERETkJpmnicDiIjo5m+/bt7Nq1q0rLDw0NJT4+HgC73U5AQID3veHDh3PLLbfgcDj45Zdf2LVrF8XFxTidTp588klM0yQnJ4dff/2VsrIy1q9fT35+PiEhIbzxxhts27aN8PBw+vXrR0BAAA0bNsTtdrNo0SKWLFnC0KFDCQsLw8/PDwCbzcYNN9xAr1692L17N9OmTWPp0qXs37+fNm3acNttt1FUVMTcuXNJT08nOzubVatW4XK59EWROkNBSkREROQkhIaGcsUVV9ClSxdiYmIICgqq0q59Ntvh27Lly5cf8V6DBg0ICAjA4/F4u89ZLBbvGCer1UpUVFSlfQzDYPfu3SxfvhyXy0VZWRmLFi0iMDCQNWvWALBjxw7S0tIYOnRopX0tFgtNmjTBYrFU6q5XEfAMwyA4OJjAwEDve1VZFyK1gYKUiIiIyEmwWq00b96c5s2bV9tnHDhwoMrKMgyD9evXe8dZlZSU8Pnnn2O32ykqKqJfv36Ypkl4eLhOrsgpUJASETkDcnNzcTqdGIZBREQEDofD+17FYHOr1XrcMpxOJxaLpdK+vioqKvIOmA8ODiYkJMT7nsfjoays7LTKF5Ezy+PxeFuK/P39ufzyy2nQoIF3ynLTNImIiFBFiZwCBSkRkb/J/v37WbVqFcuWLWP79u2Eh4djGAYlJSU0bdqU1q1b43a7KSwspH///sTFxR23vAULFpCbm8vw4cMrjaU4kfz8fNasWcOyZctYv349AQEBBAQEkJ+fT/369Wnfvj0BAQHk5OSQkpJCbGws8+fPZ926dd6pkU3TJCgoiOTkZMaOHYthGOTl5bF48WJWrFhBUVERFosF0zQJCAggMTGRCy64gPnz57Nx40aysrKwWq2YpklZWVmlm72KrkSGYeBwOGjfvj2jRo3SbGAiPjJNk2bNmnm735mmSXFxMcnJyaockSqgICUi8jf4/fffee2119iwYQP16tWjf//+NG7cGNM02b59O0uWLOGzzz4jJyeHjh070rVr1+OWl5mZyRdffMHWrVtp3br1Sc+WtW3bNv73v/8xd+5cAgMD6dOnD61bt8bf3599+/axYsUKfv75Zw4dOuSdGrl+/fqEh4dTUFDA22+/TUFBAZGRkTzxxBOVugRZrVZCQkIoLS3lgw8+YN++ffj5+fHggw8SGRmJxWIhNDQUh8PBt99+y4YNGwgJCWHkyJF06NABi8UCHB6zUVRUREZGBrNnz+aiiy7iwgsvVJCSOqUqvu+maZKQkECjRo3Yvn07xcXFfPXVV/Tr18/b0rxmzRry8vLo3bu3rjERHylIiYhUs48++ohXXnmFTZs2cffddzN27Fhat25daZstW7bw8ccf8/rrr7N9+3ZKSkqOW2ZaWhoLFy4kPT2dpUuX0qpVK28QOZZFixbx+OOP89tvvzF69GhuvPFGOnXq5J2lCw63mv3000889dRTbNu2jZycHCIjIxkwYADt2rVj7ty5rFq1ivbt23PNNddU6vYXHBxMjx49SEhIYPHixezbt4+mTZvyj3/8g8aNGwNw7rnn0qlTJzIyMtiwYQMNGzZkwoQJDBw40FtOYWEhLpeLnJwc3nrrLbKzs/UlkjrH7XZTXl7u/XfFbHgWi6XStV7xb9M0KSgo8L5uGIb34cWECRNYsWIFeXl5fPPNN8TExNCuXTv279/Ptm3buOiii4DD60253W5vGaWlpcDhhyR/DlkVn19aWurdpuJ1hTGpSxSkRESq0fz583nppZdYtWoVd9xxBzfffDPR0dFHbNesWTPuuusunE6nd0HMYykpKfF2DywpKWH69On069fPG1aOZvv27bzyyiv8+OOPDBkyhPvuu++orVj16tXjkksuwTAMnn/+ee8gdYDo6Gj8/f0BCAgIOOb4KcMwvLOPBQQEVLoxq1DRkvXXm0I4HMgAIiMjufbaa3nhhRf0RZI6xWKxkJ6eTlZWlve1KVOmcO6557J582YWLFhAWVkZcLiL71dffUVMTAwff/yxd/tZs2bRqVMnRo8ezahRo9i/fz//93//x65du3jllVeIjo72rjXVtWtXli5dyssvv8yWLVuAw8Ht5Zdf5uGHH2by5MmkpaUBkJeXx7fffku7du1Ys2YNK1euBA4Hv48++oiioiKdQKkzFKRERKpJVlYWb7zxBuvXryclJYVrr732qCGqQnh4OKNHj2bfvn3HXeRz69atbNq0iZEjR7Jy5UrmzJnD+vXrjxmkSkpK+Pbbb5k+fTrx8fFMmDCBli1bHrN8Pz8/+vXrx4oVKyodx5+fNJ9omuOK94+2nWmalV4/VlmmaZKUlMSkSZNO2NomcjZxu90kJSXxxBNPkJCQAByedrxBgwaEh4fz+eefe69Ni8VCfHw8DoeDN954w/vgwjAM7+tWq5WbbrqJYcOGsXbtWvLy8ggNDaVbt24kJCTgcDho3rw5kyZN4q677vJe68HBwYSGhjJu3DgGDhzofd3f35/69etTv359OnXq5L2GS0tLGTVqlE6g1BkKUiJyVjNNk9LS0mpf36SiBenPn7Nw4UKWLFlCWVkZgwYN8t4QHU/Hjh0ZMGCAt1XmaD/P6tWrKSoq4rbbbuO5555jy5YtzJgxgy5duhAbG3vEPjt37mTmzJkUFxfTu3dvzjnnnBPOCFi/fn1GjhyJ0+k8I+fN4/GwfPly4uPjadSo0VG3KS8vp6SkRGvXHIdhGLjdbnW3qoWCg4NJSUkhKSmp0utBQUFHvc6B486+FxISQtu2bWnRogUejweLxYLdbve+Hx4efsxp0Bs3bnzUBzXh4eGVfq8VFxd7W6NF6gJ920XkrJadnc3jjz9+wuBwOgzDYP/+/bjd7kpd8pYtW0Z6ejoA3bp1O2Y4+jM/Pz8uvfTSSjc4f7Znzx4WL15MamoqXbp0oXfv3vzyyy/MmDGDa665hpiYmCNumnfv3s3ChQsBaNmyJYmJiSc8DqvVyrnnnnvclrFj3ZxXzLjnS/39VWlpKTNmzGDAgAEkJCQc0SJls9n48ccfef3118nNzVVQOAqPx0N8fLy3vqR2MU3zuNffqTrW75aqcLRuvCJnM/1mFZGzkmEYREZG4nA4+Pzzz6v981wuF6ZpegeHl5eXk5GR4b2xqF+//kmHuYpxSH/l8XjYvHkz27dvZ8KECdhsNvr27Uvr1q1ZsmQJU6dOpUWLFoSFhVXaJyMjw9uy9OdxTidyvBuu0tJS9u3bd9RweODAgRNOlvHncvbu3cvWrVu9r5mmycqVK5k+fTo9e/Y85vnNzs5m8+bNmoziOAoKCoiNjVXQFBGpBgpSUqf9eVC8VA2bzVYjbtr8/PyYOHEiV1xxRbUvKGsYBhs3buT222/3hpSDBw9y6NAh7zZVMcYnLy+POXPm0KpVKzp16gRAu3bt6NKlCytWrGDWrFlcffXVhIaGes+B0+n0topVpfXr13PXXXcd9fopLS31Dkw/kd27d/PQQw8RGBhYqYteUVEReXl5x+y2V1ZWxuWXX85///tfde07wXdz8uTJzJo1S5UhIlLFdAcpdVpmZibz5s0jJiZGlVFFdu3aRWFh4Rm/ubVYLLRp0+ak11c6Xf7+/hiG4W11+mv3tqoIl7t372b16tX861//8pZntVoZM2YMP//8M+vWrWPWrFkkJSV5A13FFMhVeRwAcXFxDB48+KitW4WFhRw4cID9+/efsJzGjRszceJEUlNTK3UL2rJlC08//fQJz3F1dlM6W2iiDhGR6qEgJXWSxWIhIiKCRYsWcf311+uJdhWqCBAhISF1uh5CQkIq1UFBQQGmaZ5ykCktLWXevHls3LiRHTt28Nlnn3nfKyoq8n6Hv/nmG8aOHUuDBg2Aw93z/vygwOl0Ul5eftotsQ0bNuSaa64hMDDwiPf27t3L7NmzWbVq1QnLsdlsNG7cmHPOOafS6+eccw6bNm06avkiIiI1gYKU1Enh4eGMHz+eLl266GltNXC73X9bS1BNFRwcTLNmzQgICMDpdLJhwwZ69epFQEDAKZV38OBBvv32Wxo0aMBnn31WKfwbhkFQUBABAQEsWLCA+fPnM2bMGGw2G3a7naZNmxIVFUVWVha7du0iOzv7mLN+nazjDYT3eDw+PZw42raGYTB8+HBiY2N1jYqISI2kICV1UmhoKBdccIEqQqpVamoqCQkJbNmyhSVLlnD55ZefUpAqLy9n8eLFlJSU8OabbxIaGnpEkNq7dy/XX38969at48MPP+S8887zToXcoEEDOnbsyE8//cTGjRvZtWvXaQep6maxWOjYsSPw/yekaNKkib5UIiJSY+gxn4hINenYsSNdu3bFarUyZ84cli9fflLTA2dkZFBcXOz9t9PpZNq0afTu3Zs2bdrQsGFDGjVq5P2vYcOGdOvWjYEDBxIQEMDixYtZuXKlt8Wofv36DBkyhICAAP744w/mzp1bqfxjKSgoIDMz84zX47Zt23j33Xf1hRIRkRpFQUpEpJrExsZy7bXX0rp1aw4ePMjTTz/Npk2bjrvPqlWr+OCDDzhw4ABwuJvkggUL+OOPPxg5cuRx9x03bhzR0dEUFBTw/vvve4NUUFAQI0eOZMiQIRQVFfH2228zZ86c465Rc+DAAT744APWrFnjfa2srMy7z+lMWuHLRByZmZm88cYbJz2duhxbda6lVpNZLBZN/y4i1UJd+0REqlH37t158sknefrpp/n999+57rrruOGGGxgyZAjR0dHe7bZv384XX3zBjh07GDp0qLfrXX5+Pq+//jqlpaWkpKQc97M6dOhAcHAwbrebOXPm8NNPPzF06FAAEhMTeeCBB7Db7Xz77bdMnDiRDRs2MHbs2Epd5jIzM5k5cybz58+nU6dOtG7d2vve5s2bKSgo8G53LGVlZd71tEpKSo4YA+V0Or3rRpWVlVFYWHhEGbt37+aPP/7g448/ZtGiRTzxxBP6Mp0Gm83GJ598wpo1a+rU5DoVSxNo0WYRqQ4KUiIi1cjPz48hQ4bQsmVLPv/8cz744AMmTZrEq6++SsOGDYmLi2PHjh04HA46derE5ZdfTpcuXXA4HKxbt47//ve/zJs3D7vdzpNPPsnw4cPp0aPHEZ+zZMkS5s6dS1ZWFhaLhczMTO6//34OHDjAqFGjiIiIoEOHDjz//PMMHjyYN954gxdffJEpU6ZQr149mjRpwoEDB8jLy6Nz584MHTqU/v37Ex4ezt69e/nll1/44osv2LVrFxaLxbtu1sCBAxk/fjyGYZCTk8O8efP4+uuvWbVqFRaLhfT0dO6//3769+/PpZdeyty5c5kzZw5ffvklFouF3bt3c++99/Lss89WutGtWEdq7969NGzYkN69e+vLdIoMw8But/Pjjz8yZ86cOvfzl5eXU1paWisnLTFNs1YFX82AK3WNYepbLyJy2lauXEnfvn255557ePDBB4+6TcX6Slu3bmXv3r3YbDZsNhuhoaG0aNGCmJgYwsLCvDd8xcXF7Nu3z3sTGBgYSEREBKGhoUeUXVBQQF5ennea9QpRUVFERUVVmu68tLSUgwcPsn37dtLT03G73fj7+2OxWEhJSSEmJoaIiAjvGk0ul4vc3Fxyc3O9LU1wOCSGhYV5p1cvLy8nLy+P3NxcSktLgcM3Vna7nZCQEGJiYsjLyyM/P5+ioiIsFot39r+//imq6P5nGAYOh4MmTZpgsVjIysrinnvuYc2aNbz55pveCSnk2HJzc8nIyKh07uoawzCIj48nIiKixrdMHThwgNtuu40VK1Zw+eWXExwcXGsCSmlpKS+++CJDhgzhww8/1IL3ctbTN1xE5G8SHBxM06ZNadKkifem1jRNbDbbUcevBAYG0rRp05Mq+6/rVh2Pw+GgYcOGJCQk0KNHD+9T72MtcOvn50dsbOwJZ/qz2Wze4HYsJ3pfql54eDjh4eGqiFqiYjmDrKws3nrrrVp5/EdbqFvkbKQgJSLyN7NYLPj5+Z3x46jo8iUiNUd4eDh33HEHY8eOrZXHb7FYiI+Pr7OTm0jdoiAlIiIiUkM4HA7atWt3wsllajpN7iF1gYKUiIiISA3y1yUCRKRm0jpSIiIiIiIiPlKQEhERERER8ZGClIiIiIiIiI8UpERERERERHykICUiIiIiIuIjBSkREREREREfKUiJiIiIiIj4SEFKRERERETERwpSIiIiIiIiPlKQEhERERER8ZGClIiI1BqGYWAYhipCRETOOJuqQESkapimSWFhIQcOHFBlVJPc3FycTqfClIiInHEKUiIiVaAiRM2YMYPt27djmqYqpRp4PB5Wr15NRESE6lhERM4oBSkRkSoQEhJCz549MU2TPXv2qEKqUXx8PO3atSMkJESVISIiZ4xh6pGeiMhpKy0tZffu3aqIv0lAQAAxMTH4+fmpMkRE5IxQkBIREREREfGRZu0TERERERHxkYKUiIiIiIiIjxSkREREREREfKQgJSIiIiIi4iMFKRERERERER8pSImIiIiIiPjo/wFnseVukdpDUgAAACV0RVh0ZGF0ZTpjcmVhdGUAMjAyMy0wNi0xNFQyMzowNTowNSswMDowMBMaC+UAAAAldEVYdGRhdGU6bW9kaWZ5ADIwMjMtMDYtMTRUMjM6MDU6MDUrMDA6MDBiR7NZAAAAIHRFWHRwZGY6SGlSZXNCb3VuZGluZ0JveAA2MTJ4NzkyKzArMJ+dfVcAAAAUdEVYdHBkZjpWZXJzaW9uAFBERi0xLjMgUwasvwAAAABJRU5ErkJggg==;" vertex="1" parent="1">
          <mxGeometry x="1010" y="100" width="1197.51" height="510" as="geometry" />
        </mxCell>
      </root>
    </mxGraphModel>
  </diagram>
</mxfile>
